{"glyphs":{":":{"x_min":0,"x_max":113,"ha":113,"o":"m 47 119 b 59 119 70 128 74 141 b 77 153 71 162 59 162 b 46 162 34 153 31 141 b 27 128 34 119 47 119 z m 31 311 b 27 298 34 289 47 289 b 59 289 70 298 74 311 b 77 323 71 332 59 332 b 46 332 34 323 31 311 z"},"?":{"x_min":0,"x_max":961,"ha":961,"o":"m 96 275 b 145 288 168 321 166 345 b 165 369 125 371 112 383 b 99 395 93 406 107 435 b 121 464 159 496 174 505 b 189 514 201 508 186 482 b 171 457 155 436 138 427 b 131 423 140 410 148 403 b 156 395 160 392 173 403 b 186 414 216 459 221 482 b 225 505 219 514 208 526 b 176 559 51 484 57 405 b 61 363 114 354 126 348 b 145 339 120 315 91 317 b 77 318 62 328 51 344 b 48 347 42 353 36 338 b 30 323 46 262 96 275 z m 105 245 b 105 239 111 208 136 209 b 152 209 187 220 222 227 b 220 220 220 213 220 206 b 223 170 264 163 274 157 b 294 148 271 129 244 135 b 235 137 226 146 219 153 b 216 156 211 161 206 148 b 201 136 214 84 257 95 b 291 104 309 134 308 155 b 307 175 281 177 270 187 b 260 197 255 205 263 225 b 253 229 238 229 222 227 b 253 233 284 236 297 225 b 299 222 302 219 304 217 b 311 211 314 208 325 218 b 336 227 354 252 358 271 b 362 291 357 299 348 309 b 327 330 267 299 237 257 b 192 254 125 249 115 258 b 110 263 104 258 105 245 z m 181 368 b 174 349 179 341 191 329 b 199 320 206 320 214 328 b 222 335 234 349 251 373 b 243 359 231 340 233 335 b 235 326 239 317 246 310 b 257 298 263 295 273 307 b 277 312 293 332 305 353 b 316 373 325 390 330 403 b 326 391 319 369 320 364 b 323 351 327 341 331 336 b 340 325 350 318 362 316 b 374 314 366 321 373 339 b 379 355 398 392 423 421 b 412 400 411 376 415 363 b 420 351 452 330 467 327 b 473 326 480 329 487 335 b 504 353 521 389 529 406 b 532 411 535 418 537 425 b 534 425 530 426 527 428 b 541 426 561 444 561 444 b 561 444 550 423 537 394 b 526 371 526 364 542 348 b 546 344 550 341 555 341 l 557 341 b 566 343 582 367 592 386 l 604 407 b 598 394 590 374 592 369 b 598 352 611 340 619 350 b 624 356 631 365 638 377 b 638 364 643 351 652 341 b 664 329 676 327 686 339 b 690 344 704 363 716 385 b 719 390 722 395 724 401 b 720 389 715 372 717 369 b 724 357 735 351 741 360 b 747 367 758 382 768 398 b 769 389 774 378 779 371 b 793 352 811 377 821 388 b 835 405 848 429 856 447 b 852 436 840 411 842 403 b 845 391 849 381 853 376 b 862 366 872 359 884 357 b 896 355 888 361 895 379 b 902 397 923 439 951 468 b 980 497 993 491 979 504 b 965 516 955 518 943 508 b 931 497 885 434 870 384 b 870 384 863 408 869 432 b 876 456 886 467 889 470 b 891 472 886 480 877 488 b 868 496 860 499 846 464 l 843 457 l 837 446 b 825 424 808 405 801 400 b 795 396 796 403 800 412 b 803 420 815 447 822 454 b 828 462 820 469 816 473 b 811 477 809 474 809 474 l 807 470 l 807 471 b 807 484 793 494 786 496 b 778 498 765 499 749 480 b 738 467 726 448 717 429 l 708 413 b 694 391 676 363 672 366 b 662 374 714 472 720 484 b 732 509 734 512 731 521 b 729 529 717 545 712 542 b 707 539 712 539 705 523 b 696 503 689 486 682 472 b 678 480 669 485 664 487 b 656 489 646 490 630 471 b 622 462 613 449 606 435 b 602 429 566 370 561 375 b 559 376 560 379 568 398 b 576 417 585 435 594 449 b 602 463 597 466 591 470 b 584 474 583 477 574 471 b 564 465 543 458 531 458 b 520 459 518 465 515 463 b 512 461 512 460 512 454 b 512 449 513 434 523 429 b 512 412 496 378 477 361 b 464 348 448 352 445 363 b 442 373 442 385 448 401 b 452 390 467 383 474 385 b 481 386 493 401 499 418 b 504 436 500 441 495 446 b 491 451 476 464 465 462 b 465 461 470 456 467 452 b 465 448 454 447 434 432 b 435 433 450 447 461 453 b 464 455 463 458 457 463 b 443 475 433 478 421 467 b 409 457 363 394 348 344 b 348 344 341 368 347 392 b 354 416 364 427 367 429 b 370 432 365 440 355 447 b 346 455 338 459 324 423 b 321 413 321 415 316 405 b 310 395 271 330 266 335 b 255 342 308 441 314 453 b 326 478 327 481 325 489 b 322 498 311 514 305 511 b 300 508 306 508 299 491 b 285 459 273 434 263 416 b 257 408 250 396 240 385 b 222 365 209 352 208 354 b 206 355 207 359 214 374 b 221 388 232 409 241 422 b 250 434 251 436 238 445 b 224 453 223 447 212 429 b 202 411 187 387 181 368 z m 235 471 b 229 460 233 457 239 453 b 245 449 250 447 253 453 b 257 458 264 467 270 478 b 276 488 272 493 264 502 b 256 511 246 515 244 506 b 242 498 240 482 235 471 z m 282 256 b 294 272 309 286 318 291 b 331 299 342 294 329 272 b 318 253 312 248 302 241 b 298 247 292 253 282 256 z m 286 27 b 281 -2 293 3 311 14 b 329 24 355 35 383 42 b 442 55 505 63 565 68 b 632 74 678 76 696 74 b 714 73 719 71 713 85 b 710 95 702 95 628 93 b 573 92 379 84 327 69 b 306 63 291 56 286 27 z m 306 194 b 303 191 304 182 310 173 b 316 165 325 158 334 167 l 368 202 b 353 184 340 167 347 145 b 349 136 361 112 371 114 b 385 115 398 137 413 162 b 417 168 421 175 424 181 b 417 164 402 139 405 133 b 409 126 414 121 419 117 b 424 112 428 110 438 120 b 446 129 455 144 464 159 b 464 146 475 140 483 134 b 498 125 519 160 525 170 b 532 181 541 193 548 204 b 541 192 526 166 528 159 b 534 141 548 126 557 137 l 575 164 b 575 151 580 138 589 129 b 601 116 613 115 624 126 b 628 131 642 151 653 172 l 665 195 b 658 176 652 160 655 157 b 664 148 670 148 678 156 b 686 163 700 178 718 205 l 725 215 b 720 206 706 182 706 177 b 708 164 718 155 729 148 b 737 143 748 140 756 148 b 764 155 776 176 781 184 b 787 195 784 198 772 199 b 833 206 881 285 855 341 b 849 352 839 356 825 351 b 800 342 793 319 807 324 b 834 334 852 259 794 223 b 794 223 811 255 797 272 b 778 294 762 285 748 263 b 743 265 740 266 725 240 b 720 232 713 222 705 213 b 687 193 674 180 672 182 b 671 183 672 187 679 201 b 686 216 697 237 705 250 b 714 262 716 264 702 272 b 689 281 687 275 677 257 b 671 248 617 147 609 153 b 599 161 652 259 657 271 b 669 297 671 299 668 308 b 666 316 653 334 647 328 b 645 327 648 324 642 310 b 634 290 626 273 619 259 b 615 267 606 272 601 274 b 593 276 583 277 567 258 b 560 249 552 238 545 226 b 540 219 536 211 534 208 b 523 190 506 170 498 160 b 480 147 519 217 520 219 b 525 229 528 236 528 240 b 527 246 524 249 520 254 b 509 264 505 261 505 255 b 504 248 493 229 461 178 b 447 157 436 145 434 145 b 430 144 431 154 438 169 b 454 205 466 218 469 226 b 472 234 468 241 458 251 b 449 261 446 261 442 247 b 440 235 425 213 414 192 l 408 183 b 393 161 380 146 377 155 b 375 162 394 200 403 217 l 414 238 b 416 242 420 249 404 247 b 434 255 502 287 527 287 b 553 287 560 279 563 277 b 566 275 573 280 572 294 b 571 308 559 321 538 320 b 518 318 459 292 437 284 l 437 286 b 438 292 433 302 430 307 b 424 316 416 321 416 306 b 416 297 413 288 405 275 l 403 272 b 391 269 379 269 372 279 b 369 284 363 273 365 262 b 366 249 372 240 384 240 b 384 241 378 229 349 210 b 337 202 325 195 316 193 b 310 192 308 196 306 194 z m 458 404 b 453 408 458 418 464 428 b 471 438 478 445 483 442 b 488 440 483 430 477 420 b 470 410 462 401 458 404 z m 555 169 b 552 172 558 190 575 219 b 592 247 606 259 610 255 b 614 251 604 231 589 209 b 574 186 558 167 555 169 z m 618 382 b 615 384 621 403 638 431 b 654 460 669 472 673 468 b 676 464 667 444 652 421 b 637 399 621 380 618 382 z m 699 299 b 694 288 697 285 704 281 b 710 277 714 275 718 281 b 722 286 728 295 735 306 b 741 316 737 321 728 330 b 720 339 711 343 709 334 b 707 326 704 310 699 299 z m 730 185 b 730 197 743 221 743 221 b 749 207 758 202 758 202 b 758 202 749 186 743 180 b 737 173 730 173 730 185 z m 740 392 b 737 394 743 413 760 441 b 776 469 791 481 795 477 b 798 474 789 453 774 431 b 759 408 743 389 740 392 z m 758 233 b 760 246 773 269 779 266 b 785 264 779 244 767 220 b 767 220 757 221 758 233 z"},"'":{"x_min":0,"x_max":94,"ha":94,"o":"m 93 534 b 90 534 88 534 85 533 b 95 549 111 558 124 558 l 130 566 b 102 572 73 543 66 512 b 63 500 69 491 81 491 b 94 491 106 500 109 512 b 113 525 106 534 93 534 z"},"a":{"x_min":0,"x_max":223,"ha":223,"o":"m 243 232 l 230 232 b 202 199 143 128 110 139 b 89 146 150 252 205 311 l 192 311 b 186 303 171 302 160 302 l 148 287 b 146 297 140 304 131 308 b 39 351 -58 148 8 123 b 27 116 51 128 80 161 b 79 144 86 132 105 127 b 148 116 215 199 243 232 z m 14 135 b -18 149 76 322 130 297 b 136 294 141 283 137 272 b 117 246 101 220 91 198 b 57 149 30 128 14 135 z"},"L":{"x_min":0,"x_max":447,"ha":447,"o":"m 54 543 b 27 486 100 362 255 334 b 270 331 287 329 305 329 l 291 284 b 262 185 214 87 166 25 b 75 39 12 32 12 -14 b 12 -42 48 -59 91 -47 b 114 -40 140 -24 166 0 b 217 -11 278 -29 343 -50 b 469 -90 568 -112 672 -107 b 724 -105 761 -87 776 -39 b 780 -26 756 -20 754 -36 b 749 -77 729 -100 645 -98 b 569 -95 480 -59 344 -18 b 288 -1 235 13 187 21 b 244 82 298 174 327 272 l 345 330 b 421 336 509 367 578 442 b 654 525 656 649 588 676 b 476 719 376 540 310 345 b 292 345 274 347 257 350 b 106 377 47 485 72 537 b 78 547 59 556 54 543 z m 22 -14 b 22 17 72 19 148 4 b 127 -18 107 -33 89 -38 b 51 -49 22 -37 22 -14 z m 351 348 b 414 535 501 699 584 667 b 631 649 623 539 549 457 b 486 388 416 357 351 348 z"},"3":{"x_min":0,"x_max":399,"ha":399,"o":"m 134 281 b 110 281 25 261 5 164 b -13 75 46 23 104 15 b 254 -6 345 109 367 187 b 396 290 347 362 284 385 b 343 409 380 465 390 503 b 416 603 336 657 243 645 b 193 639 146 614 128 546 b 121 520 122 484 140 457 b 146 448 162 443 171 441 b 156 466 147 510 156 544 b 171 600 204 628 242 634 b 316 645 360 581 345 516 b 334 473 317 413 250 392 b 233 393 217 391 202 385 l 202 374 b 203 374 205 374 206 374 b 218 373 230 373 241 374 b 307 366 357 316 326 200 b 306 125 224 11 106 25 b 62 30 5 79 27 161 b 46 231 147 258 171 243 b 170 256 159 281 134 281 z"},";":{"x_min":0,"x_max":113,"ha":113,"o":"m 47 289 b 59 289 70 298 74 311 b 77 323 71 332 59 332 b 46 332 34 323 31 311 b 27 298 34 289 47 289 z m 10 87 b 38 81 67 110 74 141 b 77 153 71 162 59 162 b 46 162 34 153 31 141 b 27 128 34 119 47 119 b 50 119 52 119 55 120 b 45 104 29 95 16 95 z"},"J":{"x_min":0,"x_max":684,"ha":684,"o":"m 730 411 b 784 499 834 578 883 625 b 921 625 957 631 990 645 b 1012 654 1015 674 995 681 b 956 695 913 678 869 640 b 807 645 739 666 670 686 b 539 726 403 764 293 698 b 236 666 162 585 153 453 b 110 417 72 373 43 324 b -59 153 -32 -61 90 -120 b 333 -239 540 99 701 363 z m 76 301 b 98 337 124 371 152 401 b 154 380 156 358 161 334 l 171 336 b 166 363 163 387 162 411 b 252 502 363 553 449 505 b 553 445 472 196 422 118 b 348 2 258 -63 203 -14 b 129 51 219 283 332 321 l 328 332 b 207 290 116 49 197 -23 b 258 -76 369 -15 441 104 b 489 184 586 445 458 519 b 372 570 258 536 163 461 b 174 584 243 658 297 689 b 404 752 536 707 667 668 b 731 649 795 631 855 627 b 801 576 745 497 691 411 l 661 363 b 500 100 292 -205 94 -106 b -2 -58 -24 137 76 301 z m 897 639 b 929 665 961 678 993 670 b 1004 667 1000 661 986 655 b 958 643 928 639 897 639 z"},"V":{"x_min":0,"x_max":628,"ha":628,"o":"m 63 253 b 164 172 350 440 312 547 l 302 543 b 329 491 149 200 69 257 b 17 294 22 446 127 568 b 238 698 401 729 445 681 b 495 627 410 527 340 401 b 259 253 127 -36 205 -95 b 322 -184 702 604 1052 668 l 1033 668 b 693 609 299 -152 216 -85 b 162 -41 293 218 374 364 b 444 491 519 632 470 685 b 409 752 235 728 120 597 b 11 473 -2 305 63 253 z"},"\"":{"x_min":0,"x_max":154,"ha":154,"o":"m 93 534 b 90 534 88 534 85 533 b 95 549 111 558 124 558 l 130 566 b 102 572 73 543 66 512 b 63 500 69 491 81 491 b 94 491 106 500 109 512 b 113 525 106 534 93 534 z m 126 512 b 123 500 129 491 141 491 b 154 491 166 500 169 512 b 173 525 166 534 153 534 b 150 534 148 534 145 533 b 155 549 171 558 184 558 l 190 566 b 162 572 133 543 126 512 z"},"7":{"x_min":0,"x_max":366,"ha":366,"o":"m 180 28 l 415 641 l 396 641 l 393 634 b 328 508 89 786 76 558 l 86 558 b 96 693 275 527 373 591 l 114 28 z"},"S":{"x_min":0,"x_max":785,"ha":785,"o":"m 756 319 b 821 422 871 502 912 563 b 1014 588 1089 614 1116 651 b 1160 711 1108 756 1043 726 b 996 705 946 651 884 566 b 798 545 697 524 592 497 b 582 512 569 525 552 534 b 423 605 231 499 137 351 b 126 333 116 315 108 297 b 58 258 16 214 -15 163 l -7 159 b 22 201 57 238 98 272 b 46 129 81 -20 184 -67 b 417 -173 600 80 756 319 z m 163 318 b 284 395 433 445 579 483 b 623 396 558 219 516 157 b 442 48 352 -13 297 33 b 223 94 313 312 426 348 l 422 358 b 301 319 210 92 291 25 b 352 -25 463 32 535 144 b 575 207 650 390 597 488 b 696 514 793 534 875 554 b 830 491 778 413 716 319 b 561 86 374 -141 188 -53 b 94 -9 71 167 163 318 z m 181 345 b 276 481 431 580 543 521 b 556 514 566 504 573 493 b 436 457 296 412 181 345 z m 921 575 b 975 654 1013 698 1054 716 b 1108 739 1138 692 1104 655 b 1074 623 1008 598 921 575 z"},"}":{"x_min":0,"x_max":961,"ha":961,"o":"m 96 275 b 145 288 168 321 166 345 b 165 369 125 371 112 383 b 99 395 93 406 107 435 b 121 464 159 496 174 505 b 189 514 201 508 186 482 b 171 457 155 436 138 427 b 131 423 140 410 148 403 b 156 395 160 392 173 403 b 186 414 216 459 221 482 b 225 505 219 514 208 526 b 176 559 51 484 57 405 b 61 363 114 354 126 348 b 145 339 120 315 91 317 b 77 318 62 328 51 344 b 48 347 42 353 36 338 b 30 323 46 262 96 275 z m 105 245 b 105 239 111 208 136 209 b 152 209 187 220 222 227 b 220 220 220 213 220 206 b 223 170 264 163 274 157 b 294 148 271 129 244 135 b 235 137 226 146 219 153 b 216 156 211 161 206 148 b 201 136 214 84 257 95 b 291 104 309 134 308 155 b 307 175 281 177 270 187 b 260 197 255 205 263 225 b 253 229 238 229 222 227 b 253 233 284 236 297 225 b 299 222 302 219 304 217 b 311 211 314 208 325 218 b 336 227 354 252 358 271 b 362 291 357 299 348 309 b 327 330 267 299 237 257 b 192 254 125 249 115 258 b 110 263 104 258 105 245 z m 181 368 b 174 349 179 341 191 329 b 199 320 206 320 214 328 b 222 335 234 349 251 373 b 243 359 231 340 233 335 b 235 326 239 317 246 310 b 257 298 263 295 273 307 b 277 312 293 332 305 353 b 316 373 325 390 330 403 b 326 391 319 369 320 364 b 323 351 327 341 331 336 b 340 325 350 318 362 316 b 374 314 366 321 373 339 b 379 355 398 392 423 421 b 412 400 411 376 415 363 b 420 351 452 330 467 327 b 473 326 480 329 487 335 b 504 353 521 389 529 406 b 532 411 535 418 537 425 b 534 425 530 426 527 428 b 541 426 561 444 561 444 b 561 444 550 423 537 394 b 526 371 526 364 542 348 b 546 344 550 341 555 341 l 557 341 b 566 343 582 367 592 386 l 604 407 b 598 394 590 374 592 369 b 598 352 611 340 619 350 b 624 356 631 365 638 377 b 638 364 643 351 652 341 b 664 329 676 327 686 339 b 690 344 704 363 716 385 b 719 390 722 395 724 401 b 720 389 715 372 717 369 b 724 357 735 351 741 360 b 747 367 758 382 768 398 b 769 389 774 378 779 371 b 793 352 811 377 821 388 b 835 405 848 429 856 447 b 852 436 840 411 842 403 b 845 391 849 381 853 376 b 862 366 872 359 884 357 b 896 355 888 361 895 379 b 902 397 923 439 951 468 b 980 497 993 491 979 504 b 965 516 955 518 943 508 b 931 497 885 434 870 384 b 870 384 863 408 869 432 b 876 456 886 467 889 470 b 891 472 886 480 877 488 b 868 496 860 499 846 464 l 843 457 l 837 446 b 825 424 808 405 801 400 b 795 396 796 403 800 412 b 803 420 815 447 822 454 b 828 462 820 469 816 473 b 811 477 809 474 809 474 l 807 470 l 807 471 b 807 484 793 494 786 496 b 778 498 765 499 749 480 b 738 467 726 448 717 429 l 708 413 b 694 391 676 363 672 366 b 662 374 714 472 720 484 b 732 509 734 512 731 521 b 729 529 717 545 712 542 b 707 539 712 539 705 523 b 696 503 689 486 682 472 b 678 480 669 485 664 487 b 656 489 646 490 630 471 b 622 462 613 449 606 435 b 602 429 566 370 561 375 b 559 376 560 379 568 398 b 576 417 585 435 594 449 b 602 463 597 466 591 470 b 584 474 583 477 574 471 b 564 465 543 458 531 458 b 520 459 518 465 515 463 b 512 461 512 460 512 454 b 512 449 513 434 523 429 b 512 412 496 378 477 361 b 464 348 448 352 445 363 b 442 373 442 385 448 401 b 452 390 467 383 474 385 b 481 386 493 401 499 418 b 504 436 500 441 495 446 b 491 451 476 464 465 462 b 465 461 470 456 467 452 b 465 448 454 447 434 432 b 435 433 450 447 461 453 b 464 455 463 458 457 463 b 443 475 433 478 421 467 b 409 457 363 394 348 344 b 348 344 341 368 347 392 b 354 416 364 427 367 429 b 370 432 365 440 355 447 b 346 455 338 459 324 423 b 321 413 321 415 316 405 b 310 395 271 330 266 335 b 255 342 308 441 314 453 b 326 478 327 481 325 489 b 322 498 311 514 305 511 b 300 508 306 508 299 491 b 285 459 273 434 263 416 b 257 408 250 396 240 385 b 222 365 209 352 208 354 b 206 355 207 359 214 374 b 221 388 232 409 241 422 b 250 434 251 436 238 445 b 224 453 223 447 212 429 b 202 411 187 387 181 368 z m 235 471 b 229 460 233 457 239 453 b 245 449 250 447 253 453 b 257 458 264 467 270 478 b 276 488 272 493 264 502 b 256 511 246 515 244 506 b 242 498 240 482 235 471 z m 282 256 b 294 272 309 286 318 291 b 331 299 342 294 329 272 b 318 253 312 248 302 241 b 298 247 292 253 282 256 z m 286 27 b 281 -2 293 3 311 14 b 329 24 355 35 383 42 b 442 55 505 63 565 68 b 632 74 678 76 696 74 b 714 73 719 71 713 85 b 710 95 702 95 628 93 b 573 92 379 84 327 69 b 306 63 291 56 286 27 z m 306 194 b 303 191 304 182 310 173 b 316 165 325 158 334 167 l 368 202 b 353 184 340 167 347 145 b 349 136 361 112 371 114 b 385 115 398 137 413 162 b 417 168 421 175 424 181 b 417 164 402 139 405 133 b 409 126 414 121 419 117 b 424 112 428 110 438 120 b 446 129 455 144 464 159 b 464 146 475 140 483 134 b 498 125 519 160 525 170 b 532 181 541 193 548 204 b 541 192 526 166 528 159 b 534 141 548 126 557 137 l 575 164 b 575 151 580 138 589 129 b 601 116 613 115 624 126 b 628 131 642 151 653 172 l 665 195 b 658 176 652 160 655 157 b 664 148 670 148 678 156 b 686 163 700 178 718 205 l 725 215 b 720 206 706 182 706 177 b 708 164 718 155 729 148 b 737 143 748 140 756 148 b 764 155 776 176 781 184 b 787 195 784 198 772 199 b 833 206 881 285 855 341 b 849 352 839 356 825 351 b 800 342 793 319 807 324 b 834 334 852 259 794 223 b 794 223 811 255 797 272 b 778 294 762 285 748 263 b 743 265 740 266 725 240 b 720 232 713 222 705 213 b 687 193 674 180 672 182 b 671 183 672 187 679 201 b 686 216 697 237 705 250 b 714 262 716 264 702 272 b 689 281 687 275 677 257 b 671 248 617 147 609 153 b 599 161 652 259 657 271 b 669 297 671 299 668 308 b 666 316 653 334 647 328 b 645 327 648 324 642 310 b 634 290 626 273 619 259 b 615 267 606 272 601 274 b 593 276 583 277 567 258 b 560 249 552 238 545 226 b 540 219 536 211 534 208 b 523 190 506 170 498 160 b 480 147 519 217 520 219 b 525 229 528 236 528 240 b 527 246 524 249 520 254 b 509 264 505 261 505 255 b 504 248 493 229 461 178 b 447 157 436 145 434 145 b 430 144 431 154 438 169 b 454 205 466 218 469 226 b 472 234 468 241 458 251 b 449 261 446 261 442 247 b 440 235 425 213 414 192 l 408 183 b 393 161 380 146 377 155 b 375 162 394 200 403 217 l 414 238 b 416 242 420 249 404 247 b 434 255 502 287 527 287 b 553 287 560 279 563 277 b 566 275 573 280 572 294 b 571 308 559 321 538 320 b 518 318 459 292 437 284 l 437 286 b 438 292 433 302 430 307 b 424 316 416 321 416 306 b 416 297 413 288 405 275 l 403 272 b 391 269 379 269 372 279 b 369 284 363 273 365 262 b 366 249 372 240 384 240 b 384 241 378 229 349 210 b 337 202 325 195 316 193 b 310 192 308 196 306 194 z m 458 404 b 453 408 458 418 464 428 b 471 438 478 445 483 442 b 488 440 483 430 477 420 b 470 410 462 401 458 404 z m 555 169 b 552 172 558 190 575 219 b 592 247 606 259 610 255 b 614 251 604 231 589 209 b 574 186 558 167 555 169 z m 618 382 b 615 384 621 403 638 431 b 654 460 669 472 673 468 b 676 464 667 444 652 421 b 637 399 621 380 618 382 z m 699 299 b 694 288 697 285 704 281 b 710 277 714 275 718 281 b 722 286 728 295 735 306 b 741 316 737 321 728 330 b 720 339 711 343 709 334 b 707 326 704 310 699 299 z m 730 185 b 730 197 743 221 743 221 b 749 207 758 202 758 202 b 758 202 749 186 743 180 b 737 173 730 173 730 185 z m 740 392 b 737 394 743 413 760 441 b 776 469 791 481 795 477 b 798 474 789 453 774 431 b 759 408 743 389 740 392 z m 758 233 b 760 246 773 269 779 266 b 785 264 779 244 767 220 b 767 220 757 221 758 233 z"},"Z":{"x_min":0,"x_max":807,"ha":807,"o":"m -4 -111 l 359 -116 b 585 -110 683 -25 738 122 b 793 269 737 402 642 423 b 522 450 442 376 379 271 b 313 159 339 25 405 -7 b 503 -57 651 92 638 264 l 628 264 b 641 96 501 -45 409 1 b 350 31 356 152 419 259 b 480 361 551 433 640 413 b 730 393 753 258 703 126 b 655 -3 581 -100 359 -106 l 12 -100 b 134 -11 263 234 359 381 b 373 402 386 423 399 443 b 471 560 537 662 601 694 b 623 688 643 682 660 677 b 682 671 687 705 665 713 b 642 721 619 718 595 707 b 453 749 198 784 107 541 b 104 530 118 531 123 538 b 213 759 432 737 579 700 b 509 660 433 558 360 443 b 349 427 338 410 327 393 b 219 228 69 -34 -62 -107 b -64 -108 -64 -111 -62 -111 z m 617 701 b 632 705 648 706 663 702 b 675 699 670 682 656 687 z"},"x":{"x_min":0,"x_max":245,"ha":245,"o":"m 265 232 l 252 232 b 204 174 145 114 116 128 b 70 150 170 323 214 298 b 231 289 196 269 197 253 b 198 240 212 240 220 250 b 236 270 243 295 220 309 b 185 330 142 302 112 261 b 119 285 118 304 105 309 b 82 318 51 290 7 232 l 20 232 b 59 281 85 306 101 299 b 132 287 44 118 -4 125 b -13 126 -12 141 -8 159 b -5 172 -25 173 -27 159 b -30 134 -20 117 -6 115 b 19 112 55 149 81 193 b 74 160 81 129 110 117 b 151 100 212 166 265 232 z"},")":{"x_min":0,"x_max":308,"ha":308,"o":"m -48 -158 b -51 -159 -52 -162 -53 -165 b -55 -171 -52 -175 -46 -175 b -44 -175 -41 -174 -39 -173 b 300 48 418 489 197 710 b 197 711 194 712 192 712 b 186 712 181 708 179 702 b 178 699 179 696 180 695 b 369 481 255 56 -48 -158 z"},"&":{"x_min":0,"x_max":721,"ha":721,"o":"m 485 236 b 466 220 475 192 486 183 b 466 163 435 166 419 195 b 390 244 439 302 503 312 l 503 312 l 511 313 b 520 314 528 314 537 313 b 623 305 656 223 623 111 b 578 -44 399 -181 219 -130 b 78 -90 31 37 49 163 b 65 269 146 385 286 419 b 307 395 335 379 367 376 b 389 374 435 376 440 410 b 444 432 427 452 367 452 b 344 452 322 450 301 447 b 264 498 261 583 310 646 b 378 733 480 731 520 703 b 571 668 560 621 543 601 b 522 614 485 608 480 574 b 476 548 497 530 523 532 b 561 535 630 663 527 721 b 459 759 350 753 282 663 b 228 591 232 501 269 441 b 127 408 37 301 16 168 b -8 22 61 -115 215 -151 b 406 -196 588 -64 641 104 b 675 210 650 299 577 328 b 664 354 715 398 726 446 b 735 493 707 530 660 530 b 607 530 555 486 565 424 b 571 389 605 375 622 394 b 641 416 629 446 611 457 b 610 478 630 508 663 507 b 689 505 709 484 701 451 b 692 401 629 357 523 338 b 439 337 358 258 397 185 b 431 121 543 135 533 213 b 530 242 501 248 485 236 z m 322 425 b 337 427 353 428 369 428 b 394 428 416 424 416 415 b 416 404 389 404 369 406 b 351 408 336 415 322 425 z"},"_":{"x_min":0,"x_max":396,"ha":396,"o":"m 322 12 l -14 12 b -20 12 -24 8 -24 2 b -24 -4 -20 -8 -14 -8 l 322 -8 b 328 -8 332 -4 332 2 b 332 8 328 12 322 12 z"},"v":{"x_min":0,"x_max":196,"ha":196,"o":"m 151 302 b 102 262 44 116 6 130 b -15 138 42 251 82 310 l 69 310 b 63 302 48 301 37 301 b -13 220 -54 132 1 118 b 33 111 75 160 114 209 b 117 192 126 183 144 182 b 177 181 206 220 216 232 l 203 232 b 190 217 167 191 144 192 b 129 193 124 201 122 220 b 154 260 182 298 201 303 b 183 318 167 315 151 302 z"},"O":{"x_min":0,"x_max":714,"ha":714,"o":"m 613 135 b 706 314 703 507 635 533 b 640 573 634 607 614 631 b 498 770 230 562 126 339 b 105 294 91 246 84 198 b -25 301 66 559 252 644 b 268 653 252 680 235 674 b 38 583 -51 288 83 183 b 67 40 116 -97 225 -130 b 384 -178 554 20 613 135 z m 128 159 b 129 158 131 158 133 157 b 194 137 257 141 316 162 b 309 131 307 107 311 99 b 318 84 339 84 339 105 b 339 114 340 140 346 174 b 492 241 612 402 633 523 b 690 495 686 312 593 135 b 531 17 368 -166 229 -120 b 151 -95 113 25 128 159 z m 129 170 b 136 222 150 276 174 327 b 276 548 517 727 606 625 b 625 603 630 572 626 536 b 554 545 465 467 402 369 b 359 303 332 228 319 174 b 259 151 197 146 137 167 z m 348 187 b 357 239 377 307 416 368 b 477 462 567 534 623 526 l 624 526 b 604 412 487 255 348 187 z"},"(":{"x_min":0,"x_max":961,"ha":961,"o":"m 96 275 b 145 288 168 321 166 345 b 165 369 125 371 112 383 b 99 395 93 406 107 435 b 121 464 159 496 174 505 b 189 514 201 508 186 482 b 171 457 155 436 138 427 b 131 423 140 410 148 403 b 156 395 160 392 173 403 b 186 414 216 459 221 482 b 225 505 219 514 208 526 b 176 559 51 484 57 405 b 61 363 114 354 126 348 b 145 339 120 315 91 317 b 77 318 62 328 51 344 b 48 347 42 353 36 338 b 30 323 46 262 96 275 z m 105 245 b 105 239 111 208 136 209 b 152 209 187 220 222 227 b 220 220 220 213 220 206 b 223 170 264 163 274 157 b 294 148 271 129 244 135 b 235 137 226 146 219 153 b 216 156 211 161 206 148 b 201 136 214 84 257 95 b 291 104 309 134 308 155 b 307 175 281 177 270 187 b 260 197 255 205 263 225 b 253 229 238 229 222 227 b 253 233 284 236 297 225 b 299 222 302 219 304 217 b 311 211 314 208 325 218 b 336 227 354 252 358 271 b 362 291 357 299 348 309 b 327 330 267 299 237 257 b 192 254 125 249 115 258 b 110 263 104 258 105 245 z m 181 368 b 174 349 179 341 191 329 b 199 320 206 320 214 328 b 222 335 234 349 251 373 b 243 359 231 340 233 335 b 235 326 239 317 246 310 b 257 298 263 295 273 307 b 277 312 293 332 305 353 b 316 373 325 390 330 403 b 326 391 319 369 320 364 b 323 351 327 341 331 336 b 340 325 350 318 362 316 b 374 314 366 321 373 339 b 379 355 398 392 423 421 b 412 400 411 376 415 363 b 420 351 452 330 467 327 b 473 326 480 329 487 335 b 504 353 521 389 529 406 b 532 411 535 418 537 425 b 534 425 530 426 527 428 b 541 426 561 444 561 444 b 561 444 550 423 537 394 b 526 371 526 364 542 348 b 546 344 550 341 555 341 l 557 341 b 566 343 582 367 592 386 l 604 407 b 598 394 590 374 592 369 b 598 352 611 340 619 350 b 624 356 631 365 638 377 b 638 364 643 351 652 341 b 664 329 676 327 686 339 b 690 344 704 363 716 385 b 719 390 722 395 724 401 b 720 389 715 372 717 369 b 724 357 735 351 741 360 b 747 367 758 382 768 398 b 769 389 774 378 779 371 b 793 352 811 377 821 388 b 835 405 848 429 856 447 b 852 436 840 411 842 403 b 845 391 849 381 853 376 b 862 366 872 359 884 357 b 896 355 888 361 895 379 b 902 397 923 439 951 468 b 980 497 993 491 979 504 b 965 516 955 518 943 508 b 931 497 885 434 870 384 b 870 384 863 408 869 432 b 876 456 886 467 889 470 b 891 472 886 480 877 488 b 868 496 860 499 846 464 l 843 457 l 837 446 b 825 424 808 405 801 400 b 795 396 796 403 800 412 b 803 420 815 447 822 454 b 828 462 820 469 816 473 b 811 477 809 474 809 474 l 807 470 l 807 471 b 807 484 793 494 786 496 b 778 498 765 499 749 480 b 738 467 726 448 717 429 l 708 413 b 694 391 676 363 672 366 b 662 374 714 472 720 484 b 732 509 734 512 731 521 b 729 529 717 545 712 542 b 707 539 712 539 705 523 b 696 503 689 486 682 472 b 678 480 669 485 664 487 b 656 489 646 490 630 471 b 622 462 613 449 606 435 b 602 429 566 370 561 375 b 559 376 560 379 568 398 b 576 417 585 435 594 449 b 602 463 597 466 591 470 b 584 474 583 477 574 471 b 564 465 543 458 531 458 b 520 459 518 465 515 463 b 512 461 512 460 512 454 b 512 449 513 434 523 429 b 512 412 496 378 477 361 b 464 348 448 352 445 363 b 442 373 442 385 448 401 b 452 390 467 383 474 385 b 481 386 493 401 499 418 b 504 436 500 441 495 446 b 491 451 476 464 465 462 b 465 461 470 456 467 452 b 465 448 454 447 434 432 b 435 433 450 447 461 453 b 464 455 463 458 457 463 b 443 475 433 478 421 467 b 409 457 363 394 348 344 b 348 344 341 368 347 392 b 354 416 364 427 367 429 b 370 432 365 440 355 447 b 346 455 338 459 324 423 b 321 413 321 415 316 405 b 310 395 271 330 266 335 b 255 342 308 441 314 453 b 326 478 327 481 325 489 b 322 498 311 514 305 511 b 300 508 306 508 299 491 b 285 459 273 434 263 416 b 257 408 250 396 240 385 b 222 365 209 352 208 354 b 206 355 207 359 214 374 b 221 388 232 409 241 422 b 250 434 251 436 238 445 b 224 453 223 447 212 429 b 202 411 187 387 181 368 z m 235 471 b 229 460 233 457 239 453 b 245 449 250 447 253 453 b 257 458 264 467 270 478 b 276 488 272 493 264 502 b 256 511 246 515 244 506 b 242 498 240 482 235 471 z m 282 256 b 294 272 309 286 318 291 b 331 299 342 294 329 272 b 318 253 312 248 302 241 b 298 247 292 253 282 256 z m 286 27 b 281 -2 293 3 311 14 b 329 24 355 35 383 42 b 442 55 505 63 565 68 b 632 74 678 76 696 74 b 714 73 719 71 713 85 b 710 95 702 95 628 93 b 573 92 379 84 327 69 b 306 63 291 56 286 27 z m 306 194 b 303 191 304 182 310 173 b 316 165 325 158 334 167 l 368 202 b 353 184 340 167 347 145 b 349 136 361 112 371 114 b 385 115 398 137 413 162 b 417 168 421 175 424 181 b 417 164 402 139 405 133 b 409 126 414 121 419 117 b 424 112 428 110 438 120 b 446 129 455 144 464 159 b 464 146 475 140 483 134 b 498 125 519 160 525 170 b 532 181 541 193 548 204 b 541 192 526 166 528 159 b 534 141 548 126 557 137 l 575 164 b 575 151 580 138 589 129 b 601 116 613 115 624 126 b 628 131 642 151 653 172 l 665 195 b 658 176 652 160 655 157 b 664 148 670 148 678 156 b 686 163 700 178 718 205 l 725 215 b 720 206 706 182 706 177 b 708 164 718 155 729 148 b 737 143 748 140 756 148 b 764 155 776 176 781 184 b 787 195 784 198 772 199 b 833 206 881 285 855 341 b 849 352 839 356 825 351 b 800 342 793 319 807 324 b 834 334 852 259 794 223 b 794 223 811 255 797 272 b 778 294 762 285 748 263 b 743 265 740 266 725 240 b 720 232 713 222 705 213 b 687 193 674 180 672 182 b 671 183 672 187 679 201 b 686 216 697 237 705 250 b 714 262 716 264 702 272 b 689 281 687 275 677 257 b 671 248 617 147 609 153 b 599 161 652 259 657 271 b 669 297 671 299 668 308 b 666 316 653 334 647 328 b 645 327 648 324 642 310 b 634 290 626 273 619 259 b 615 267 606 272 601 274 b 593 276 583 277 567 258 b 560 249 552 238 545 226 b 540 219 536 211 534 208 b 523 190 506 170 498 160 b 480 147 519 217 520 219 b 525 229 528 236 528 240 b 527 246 524 249 520 254 b 509 264 505 261 505 255 b 504 248 493 229 461 178 b 447 157 436 145 434 145 b 430 144 431 154 438 169 b 454 205 466 218 469 226 b 472 234 468 241 458 251 b 449 261 446 261 442 247 b 440 235 425 213 414 192 l 408 183 b 393 161 380 146 377 155 b 375 162 394 200 403 217 l 414 238 b 416 242 420 249 404 247 b 434 255 502 287 527 287 b 553 287 560 279 563 277 b 566 275 573 280 572 294 b 571 308 559 321 538 320 b 518 318 459 292 437 284 l 437 286 b 438 292 433 302 430 307 b 424 316 416 321 416 306 b 416 297 413 288 405 275 l 403 272 b 391 269 379 269 372 279 b 369 284 363 273 365 262 b 366 249 372 240 384 240 b 384 241 378 229 349 210 b 337 202 325 195 316 193 b 310 192 308 196 306 194 z m 458 404 b 453 408 458 418 464 428 b 471 438 478 445 483 442 b 488 440 483 430 477 420 b 470 410 462 401 458 404 z m 555 169 b 552 172 558 190 575 219 b 592 247 606 259 610 255 b 614 251 604 231 589 209 b 574 186 558 167 555 169 z m 618 382 b 615 384 621 403 638 431 b 654 460 669 472 673 468 b 676 464 667 444 652 421 b 637 399 621 380 618 382 z m 699 299 b 694 288 697 285 704 281 b 710 277 714 275 718 281 b 722 286 728 295 735 306 b 741 316 737 321 728 330 b 720 339 711 343 709 334 b 707 326 704 310 699 299 z m 730 185 b 730 197 743 221 743 221 b 749 207 758 202 758 202 b 758 202 749 186 743 180 b 737 173 730 173 730 185 z m 740 392 b 737 394 743 413 760 441 b 776 469 791 481 795 477 b 798 474 789 453 774 431 b 759 408 743 389 740 392 z m 758 233 b 760 246 773 269 779 266 b 785 264 779 244 767 220 b 767 220 757 221 758 233 z"},"C":{"x_min":0,"x_max":687,"ha":687,"o":"m 707 232 l 694 232 b 624 142 392 -174 229 -120 b 150 -94 113 20 130 158 l 133 157 b 416 64 724 499 614 631 b 498 770 232 595 126 339 b 106 292 93 243 86 197 b -26 298 65 558 252 644 b 268 653 252 680 235 674 b 37 582 -52 285 85 182 b 67 34 114 -97 225 -130 b 402 -183 644 152 707 232 z m 131 169 b 138 220 152 274 174 327 b 278 581 517 727 606 625 b 712 503 402 73 137 167 z"},"W":{"x_min":0,"x_max":958,"ha":958,"o":"m 823 567 b 841 613 788 623 744 575 b 660 484 597 344 564 213 b 419 37 257 -123 210 -85 b 156 -41 287 218 368 364 b 438 491 513 632 464 685 b 403 752 239 719 124 588 b 15 464 -8 305 57 253 b 158 172 344 440 306 547 l 296 543 b 323 491 143 200 63 257 b 11 294 26 442 131 564 b 242 694 395 729 439 681 b 489 627 404 527 334 401 b 253 253 121 -36 199 -95 b 261 -142 414 -2 554 167 b 526 26 537 -97 601 -123 b 754 -186 970 644 1250 581 b 1265 576 1268 596 1253 599 b 971 665 730 -168 607 -111 b 551 -85 560 71 609 235 b 710 365 796 498 823 567 z m 628 293 b 664 395 714 495 773 564 b 807 604 818 592 807 567 b 782 508 712 402 628 293 z"},"A":{"x_min":0,"x_max":874,"ha":874,"o":"m 447 144 b 462 167 482 207 498 253 b 526 254 555 254 584 254 b 438 47 269 -132 100 -53 b 4 -8 -18 175 82 329 b 176 473 339 582 455 521 b 527 482 511 359 477 262 b 410 259 345 250 297 230 b 290 227 294 217 301 220 b 347 240 408 248 474 252 b 459 212 442 178 428 157 b 354 48 264 -13 209 33 b 135 94 225 312 338 348 l 334 358 b 213 319 122 92 203 25 b 264 -25 375 32 447 144 z m 49 351 b -53 190 -26 -11 96 -67 b 308 -164 478 37 625 254 l 637 254 b 678 254 718 254 753 255 b 718 76 766 -83 942 -108 b 1020 -119 1106 -59 1098 17 b 1096 34 1076 31 1079 15 b 1086 -53 1015 -108 944 -98 b 796 -78 755 79 789 256 b 837 260 871 268 877 289 b 879 296 866 300 863 293 b 859 279 832 271 791 268 b 824 424 913 593 1037 695 b 1041 700 1032 711 1027 707 l 1002 687 b 895 704 773 541 657 363 b 636 330 613 297 591 264 b 561 264 531 264 501 263 b 535 363 549 487 464 534 b 335 605 143 499 49 351 z m 632 264 l 689 351 b 802 523 895 684 992 678 b 874 572 787 413 755 265 b 721 264 680 264 637 264 z"},"f":{"x_min":0,"x_max":133,"ha":133,"o":"m 226 494 l 224 506 b 220 507 216 507 212 506 b 148 495 65 342 1 222 b -12 198 -24 173 -37 148 b -36 158 -44 174 -57 169 b -71 163 -60 143 -53 138 b -50 136 -48 134 -45 133 b -102 19 -164 -95 -262 -148 b -269 -151 -267 -161 -261 -159 b -139 -114 -73 2 -13 121 b 52 113 116 187 153 232 l 140 232 b 105 192 51 129 -6 134 b 7 161 20 187 34 213 b 101 342 181 488 226 494 z"},"Q":{"x_min":0,"x_max":646,"ha":646,"o":"m 203 352 l 213 352 b 207 431 301 632 400 614 b 463 603 481 522 449 384 b 414 231 294 51 174 75 b 67 96 24 243 84 425 b 139 592 266 772 435 760 b 636 746 628 499 573 329 b 510 132 403 28 280 -26 b 193 -3 112 17 75 17 b 11 17 -23 -1 -24 -34 b -25 -79 75 -91 174 -70 b 198 -65 222 -59 246 -51 b 343 -79 461 -114 573 -120 b 645 -124 678 -74 686 -32 b 686 -27 676 -23 676 -30 b 669 -67 636 -91 573 -89 b 515 -87 404 -58 299 -31 b 430 25 557 132 620 325 b 675 497 645 746 435 770 b 250 791 94 608 38 439 b -24 251 46 89 172 65 b 300 41 453 222 488 377 b 521 520 472 611 402 624 b 295 644 197 433 203 352 z m -14 -39 b -14 -24 14 -11 75 -11 b 110 -11 164 -26 228 -45 b 210 -51 191 -56 172 -60 b 81 -80 -14 -65 -14 -39 z"},"w":{"x_min":0,"x_max":307,"ha":307,"o":"m 327 232 l 314 232 b 301 217 278 191 255 192 b 240 193 232 201 230 220 b 262 260 290 298 309 303 b 291 318 275 315 259 302 b 210 262 152 116 114 130 b 93 138 146 244 201 303 b 183 318 167 315 151 302 b 102 262 44 116 6 130 b -15 138 42 251 82 310 l 69 310 b 63 302 48 301 37 301 b -13 220 -54 132 1 118 b 26 112 58 142 90 179 b 79 148 83 125 109 118 b 141 111 183 160 222 210 b 227 192 237 183 255 182 b 288 181 317 220 327 232 z"},"-":{"x_min":0,"x_max":287,"ha":287,"o":"m 263 293 l 36 293 b 30 293 26 289 26 283 b 26 277 30 273 36 273 l 263 273 b 269 273 273 277 273 283 b 273 289 269 293 263 293 z"},"E":{"x_min":0,"x_max":858,"ha":858,"o":"m 878 232 l 865 232 b 714 40 510 -239 330 -130 b 303 -114 284 -84 273 -46 b 398 -7 522 103 547 206 b 552 233 522 233 517 213 b 493 114 384 6 269 -34 b 250 43 261 148 301 236 b 388 426 547 457 639 435 b 643 434 646 433 650 432 l 654 442 l 641 447 b 606 465 577 512 583 569 b 720 575 870 592 839 681 b 814 752 629 743 575 639 b 564 618 558 597 556 578 b 390 571 189 556 66 395 b -40 257 -32 37 81 -34 b 129 -64 189 -67 250 -52 b 268 -90 293 -121 326 -140 b 517 -249 726 37 878 232 z m 87 -26 b -21 42 -16 239 87 373 b 207 530 391 559 556 568 b 555 519 579 478 607 454 b 504 468 333 427 254 255 b 211 161 210 44 245 -42 b 189 -57 133 -55 87 -26 z m 585 579 b 587 595 593 611 601 627 b 653 729 803 740 829 676 b 862 596 720 585 585 579 z"},"s":{"x_min":0,"x_max":173,"ha":173,"o":"m 7 232 l 20 232 b 42 260 64 282 82 300 b 82 287 83 274 86 259 b 100 182 42 120 14 122 b 1 122 -7 133 -1 152 b 5 170 -21 171 -21 152 b -21 129 -8 113 13 112 b 84 109 142 166 121 255 b 114 285 109 308 107 324 b 127 344 136 355 121 364 b 104 374 87 356 83 319 b 65 301 39 273 7 232 z m 105 340 b 105 352 108 356 113 355 b 119 353 116 350 105 340 z"},"l":{"x_min":0,"x_max":117,"ha":117,"o":"m 178 491 b 102 380 -51 170 -40 127 b -35 109 -10 101 8 106 b 50 116 113 203 137 232 l 124 232 b 96 199 28 105 -5 117 b -41 130 176 439 223 500 l 210 500 b 204 492 189 491 178 491 z"},"8":{"x_min":0,"x_max":929,"ha":929,"o":"m 65 275 b 114 288 137 321 135 345 b 134 369 94 371 81 383 b 68 395 62 406 76 435 b 90 464 128 496 143 505 b 158 514 170 508 155 482 b 140 457 124 436 107 427 b 100 423 109 410 117 403 b 125 395 129 392 142 403 b 155 414 185 459 190 482 b 194 505 188 514 177 526 b 145 559 20 484 26 405 b 30 363 83 354 95 348 b 114 339 89 315 60 317 b 46 318 31 328 20 344 b 17 347 11 353 5 338 b -1 323 15 262 65 275 z m 74 245 b 74 239 80 208 105 209 b 121 209 156 220 191 227 b 189 220 189 213 189 206 b 192 170 233 163 243 157 b 263 148 240 129 213 135 b 204 137 195 146 188 153 b 185 156 180 161 175 148 b 170 136 183 84 226 95 b 260 104 278 134 277 155 b 276 175 250 177 239 187 b 229 197 224 205 232 225 b 222 229 207 229 191 227 b 222 233 253 236 266 225 b 268 222 271 219 273 217 b 280 211 283 208 294 218 b 305 227 323 252 327 271 b 331 291 326 299 317 309 b 296 330 236 299 206 257 b 161 254 94 249 84 258 b 79 263 73 258 74 245 z m 150 368 b 143 349 148 341 160 329 b 168 320 175 320 183 328 b 191 335 203 349 220 373 b 212 359 200 340 202 335 b 204 326 208 317 215 310 b 226 298 232 295 242 307 b 246 312 262 332 274 353 b 285 373 294 390 299 403 b 295 391 288 369 289 364 b 292 351 296 341 300 336 b 309 325 319 318 331 316 b 343 314 335 321 342 339 b 348 355 367 392 392 421 b 381 400 380 376 384 363 b 389 351 421 330 436 327 b 442 326 449 329 456 335 b 473 353 490 389 498 406 b 501 411 504 418 506 425 b 503 425 499 426 496 428 b 510 426 530 444 530 444 b 530 444 519 423 506 394 b 495 371 495 364 511 348 b 515 344 519 341 524 341 l 526 341 b 535 343 551 367 561 386 l 573 407 b 567 394 559 374 561 369 b 567 352 580 340 588 350 b 593 356 600 365 607 377 b 607 364 612 351 621 341 b 633 329 645 327 655 339 b 659 344 673 363 685 385 b 688 390 691 395 693 401 b 689 389 684 372 686 369 b 693 357 704 351 710 360 b 716 367 727 382 737 398 b 738 389 743 378 748 371 b 762 352 780 377 790 388 b 804 405 817 429 825 447 b 821 436 809 411 811 403 b 814 391 818 381 822 376 b 831 366 841 359 853 357 b 865 355 857 361 864 379 b 871 397 892 439 920 468 b 949 497 962 491 948 504 b 934 516 924 518 912 508 b 900 497 854 434 839 384 b 839 384 832 408 838 432 b 845 456 855 467 858 470 b 860 472 855 480 846 488 b 837 496 829 499 815 464 l 812 457 l 806 446 b 794 424 777 405 770 400 b 764 396 765 403 769 412 b 772 420 784 447 791 454 b 797 462 789 469 785 473 b 780 477 778 474 778 474 l 776 470 l 776 471 b 776 484 762 494 755 496 b 747 498 734 499 718 480 b 707 467 695 448 686 429 l 677 413 b 663 391 645 363 641 366 b 631 374 683 472 689 484 b 701 509 703 512 700 521 b 698 529 686 545 681 542 b 676 539 681 539 674 523 b 665 503 658 486 651 472 b 647 480 638 485 633 487 b 625 489 615 490 599 471 b 591 462 582 449 575 435 b 571 429 535 370 530 375 b 528 376 529 379 537 398 b 545 417 554 435 563 449 b 571 463 566 466 560 470 b 553 474 552 477 543 471 b 533 465 512 458 500 458 b 489 459 487 465 484 463 b 481 461 481 460 481 454 b 481 449 482 434 492 429 b 481 412 465 378 446 361 b 433 348 417 352 414 363 b 411 373 411 385 417 401 b 421 390 436 383 443 385 b 450 386 462 401 468 418 b 473 436 469 441 464 446 b 460 451 445 464 434 462 b 434 461 439 456 436 452 b 434 448 423 447 403 432 b 404 433 419 447 430 453 b 433 455 432 458 426 463 b 412 475 402 478 390 467 b 378 457 332 394 317 344 b 317 344 310 368 316 392 b 323 416 333 427 336 429 b 339 432 334 440 324 447 b 315 455 307 459 293 423 b 290 413 290 415 285 405 b 279 395 240 330 235 335 b 224 342 277 441 283 453 b 295 478 296 481 294 489 b 291 498 280 514 274 511 b 269 508 275 508 268 491 b 254 459 242 434 232 416 b 226 408 219 396 209 385 b 191 365 178 352 177 354 b 175 355 176 359 183 374 b 190 388 201 409 210 422 b 219 434 220 436 207 445 b 193 453 192 447 181 429 b 171 411 156 387 150 368 z m 204 471 b 198 460 202 457 208 453 b 214 449 219 447 222 453 b 226 458 233 467 239 478 b 245 488 241 493 233 502 b 225 511 215 515 213 506 b 211 498 209 482 204 471 z m 251 256 b 263 272 278 286 287 291 b 300 299 311 294 298 272 b 287 253 281 248 271 241 b 267 247 261 253 251 256 z m 255 27 b 250 -2 262 3 280 14 b 298 24 324 35 352 42 b 411 55 474 63 534 68 b 601 74 647 76 665 74 b 683 73 688 71 682 85 b 679 95 671 95 597 93 b 542 92 348 84 296 69 b 275 63 260 56 255 27 z m 275 194 b 272 191 273 182 279 173 b 285 165 294 158 303 167 l 337 202 b 322 184 309 167 316 145 b 318 136 330 112 340 114 b 354 115 367 137 382 162 b 386 168 390 175 393 181 b 386 164 371 139 374 133 b 378 126 383 121 388 117 b 393 112 397 110 407 120 b 415 129 424 144 433 159 b 433 146 444 140 452 134 b 467 125 488 160 494 170 b 501 181 510 193 517 204 b 510 192 495 166 497 159 b 503 141 517 126 526 137 l 544 164 b 544 151 549 138 558 129 b 570 116 582 115 593 126 b 597 131 611 151 622 172 l 634 195 b 627 176 621 160 624 157 b 633 148 639 148 647 156 b 655 163 669 178 687 205 l 694 215 b 689 206 675 182 675 177 b 677 164 687 155 698 148 b 706 143 717 140 725 148 b 733 155 745 176 750 184 b 756 195 753 198 741 199 b 802 206 850 285 824 341 b 818 352 808 356 794 351 b 769 342 762 319 776 324 b 803 334 821 259 763 223 b 763 223 780 255 766 272 b 747 294 731 285 717 263 b 712 265 709 266 694 240 b 689 232 682 222 674 213 b 656 193 643 180 641 182 b 640 183 641 187 648 201 b 655 216 666 237 674 250 b 683 262 685 264 671 272 b 658 281 656 275 646 257 b 640 248 586 147 578 153 b 568 161 621 259 626 271 b 638 297 640 299 637 308 b 635 316 622 334 616 328 b 614 327 617 324 611 310 b 603 290 595 273 588 259 b 584 267 575 272 570 274 b 562 276 552 277 536 258 b 529 249 521 238 514 226 b 509 219 505 211 503 208 b 492 190 475 170 467 160 b 449 147 488 217 489 219 b 494 229 497 236 497 240 b 496 246 493 249 489 254 b 478 264 474 261 474 255 b 473 248 462 229 430 178 b 416 157 405 145 403 145 b 399 144 400 154 407 169 b 423 205 435 218 438 226 b 441 234 437 241 427 251 b 418 261 415 261 411 247 b 409 235 394 213 383 192 l 377 183 b 362 161 349 146 346 155 b 344 162 363 200 372 217 l 383 238 b 385 242 389 249 373 247 b 403 255 471 287 496 287 b 522 287 529 279 532 277 b 535 275 542 280 541 294 b 540 308 528 321 507 320 b 487 318 428 292 406 284 l 406 286 b 407 292 402 302 399 307 b 393 316 385 321 385 306 b 385 297 382 288 374 275 l 372 272 b 360 269 348 269 341 279 b 338 284 332 273 334 262 b 335 249 341 240 353 240 b 353 241 347 229 318 210 b 306 202 294 195 285 193 b 279 192 277 196 275 194 z m 427 404 b 422 408 427 418 433 428 b 440 438 447 445 452 442 b 457 440 452 430 446 420 b 439 410 431 401 427 404 z m 524 169 b 521 172 527 190 544 219 b 561 247 575 259 579 255 b 583 251 573 231 558 209 b 543 186 527 167 524 169 z m 587 382 b 584 384 590 403 607 431 b 623 460 638 472 642 468 b 645 464 636 444 621 421 b 606 399 590 380 587 382 z m 668 299 b 663 288 666 285 673 281 b 679 277 683 275 687 281 b 691 286 697 295 704 306 b 710 316 706 321 697 330 b 689 339 680 343 678 334 b 676 326 673 310 668 299 z m 699 185 b 699 197 712 221 712 221 b 718 207 727 202 727 202 b 727 202 718 186 712 180 b 706 173 699 173 699 185 z m 709 392 b 706 394 712 413 729 441 b 745 469 760 481 764 477 b 767 474 758 453 743 431 b 728 408 712 389 709 392 z m 727 233 b 729 246 742 269 748 266 b 754 264 748 244 736 220 b 736 220 726 221 727 233 z"},"\\":{"x_min":0,"x_max":391,"ha":391,"o":"m 290 -105 l 308 -105 l 114 680 l 96 680 z"},"e":{"x_min":0,"x_max":154,"ha":154,"o":"m 19 117 b 60 100 121 166 174 232 l 161 232 b 113 174 54 114 25 128 b 5 137 12 175 30 212 b 90 205 177 279 129 309 b 51 357 -70 155 19 117 z m 35 222 b 59 269 98 312 119 299 b 151 280 81 219 35 222 z"},"b":{"x_min":0,"x_max":197,"ha":197,"o":"m -16 106 b -18 112 -15 124 -8 140 b -5 134 0 130 6 127 b 40 111 74 128 101 158 b 137 163 189 194 217 232 l 204 232 b 178 203 142 178 111 170 b 150 221 168 297 129 312 b 116 317 101 313 83 300 b 138 385 199 472 221 500 l 208 500 b 202 492 187 491 176 491 b 100 380 -46 177 -39 133 b -37 120 -31 106 -23 100 b -18 97 -14 98 -16 106 z m -1 156 b 2 161 4 167 7 172 b 14 175 25 172 40 167 l 63 160 b 44 141 24 130 7 138 b 3 140 -1 147 -1 156 z m 13 183 b 18 191 23 201 29 210 b 71 278 105 308 123 300 b 144 291 111 214 71 169 b 61 170 52 173 43 176 b 33 179 22 183 13 183 z"},"m":{"x_min":0,"x_max":301,"ha":301,"o":"m -3 118 b 37 230 103 307 138 303 b 154 301 98 236 77 185 b 72 171 68 158 68 148 b 68 130 79 119 82 115 b 87 109 92 116 92 118 b 132 230 191 302 226 298 b 245 296 161 202 158 152 b 157 136 166 116 185 114 b 207 112 269 163 321 232 l 308 232 b 261 171 205 118 187 125 b 169 132 245 243 252 264 b 262 294 244 313 222 308 b 204 304 183 290 163 267 l 164 269 b 174 299 156 318 134 313 b 102 306 60 265 25 203 b 46 245 75 289 95 311 l 82 311 b 76 303 61 302 50 302 b 28 273 -27 188 -27 148 b -27 130 -16 119 -13 115 b -8 109 -3 116 -3 118 z"},"#":{"x_min":0,"x_max":961,"ha":961,"o":"m 96 275 b 145 288 168 321 166 345 b 165 369 125 371 112 383 b 99 395 93 406 107 435 b 121 464 159 496 174 505 b 189 514 201 508 186 482 b 171 457 155 436 138 427 b 131 423 140 410 148 403 b 156 395 160 392 173 403 b 186 414 216 459 221 482 b 225 505 219 514 208 526 b 176 559 51 484 57 405 b 61 363 114 354 126 348 b 145 339 120 315 91 317 b 77 318 62 328 51 344 b 48 347 42 353 36 338 b 30 323 46 262 96 275 z m 105 245 b 105 239 111 208 136 209 b 152 209 187 220 222 227 b 220 220 220 213 220 206 b 223 170 264 163 274 157 b 294 148 271 129 244 135 b 235 137 226 146 219 153 b 216 156 211 161 206 148 b 201 136 214 84 257 95 b 291 104 309 134 308 155 b 307 175 281 177 270 187 b 260 197 255 205 263 225 b 253 229 238 229 222 227 b 253 233 284 236 297 225 b 299 222 302 219 304 217 b 311 211 314 208 325 218 b 336 227 354 252 358 271 b 362 291 357 299 348 309 b 327 330 267 299 237 257 b 192 254 125 249 115 258 b 110 263 104 258 105 245 z m 181 368 b 174 349 179 341 191 329 b 199 320 206 320 214 328 b 222 335 234 349 251 373 b 243 359 231 340 233 335 b 235 326 239 317 246 310 b 257 298 263 295 273 307 b 277 312 293 332 305 353 b 316 373 325 390 330 403 b 326 391 319 369 320 364 b 323 351 327 341 331 336 b 340 325 350 318 362 316 b 374 314 366 321 373 339 b 379 355 398 392 423 421 b 412 400 411 376 415 363 b 420 351 452 330 467 327 b 473 326 480 329 487 335 b 504 353 521 389 529 406 b 532 411 535 418 537 425 b 534 425 530 426 527 428 b 541 426 561 444 561 444 b 561 444 550 423 537 394 b 526 371 526 364 542 348 b 546 344 550 341 555 341 l 557 341 b 566 343 582 367 592 386 l 604 407 b 598 394 590 374 592 369 b 598 352 611 340 619 350 b 624 356 631 365 638 377 b 638 364 643 351 652 341 b 664 329 676 327 686 339 b 690 344 704 363 716 385 b 719 390 722 395 724 401 b 720 389 715 372 717 369 b 724 357 735 351 741 360 b 747 367 758 382 768 398 b 769 389 774 378 779 371 b 793 352 811 377 821 388 b 835 405 848 429 856 447 b 852 436 840 411 842 403 b 845 391 849 381 853 376 b 862 366 872 359 884 357 b 896 355 888 361 895 379 b 902 397 923 439 951 468 b 980 497 993 491 979 504 b 965 516 955 518 943 508 b 931 497 885 434 870 384 b 870 384 863 408 869 432 b 876 456 886 467 889 470 b 891 472 886 480 877 488 b 868 496 860 499 846 464 l 843 457 l 837 446 b 825 424 808 405 801 400 b 795 396 796 403 800 412 b 803 420 815 447 822 454 b 828 462 820 469 816 473 b 811 477 809 474 809 474 l 807 470 l 807 471 b 807 484 793 494 786 496 b 778 498 765 499 749 480 b 738 467 726 448 717 429 l 708 413 b 694 391 676 363 672 366 b 662 374 714 472 720 484 b 732 509 734 512 731 521 b 729 529 717 545 712 542 b 707 539 712 539 705 523 b 696 503 689 486 682 472 b 678 480 669 485 664 487 b 656 489 646 490 630 471 b 622 462 613 449 606 435 b 602 429 566 370 561 375 b 559 376 560 379 568 398 b 576 417 585 435 594 449 b 602 463 597 466 591 470 b 584 474 583 477 574 471 b 564 465 543 458 531 458 b 520 459 518 465 515 463 b 512 461 512 460 512 454 b 512 449 513 434 523 429 b 512 412 496 378 477 361 b 464 348 448 352 445 363 b 442 373 442 385 448 401 b 452 390 467 383 474 385 b 481 386 493 401 499 418 b 504 436 500 441 495 446 b 491 451 476 464 465 462 b 465 461 470 456 467 452 b 465 448 454 447 434 432 b 435 433 450 447 461 453 b 464 455 463 458 457 463 b 443 475 433 478 421 467 b 409 457 363 394 348 344 b 348 344 341 368 347 392 b 354 416 364 427 367 429 b 370 432 365 440 355 447 b 346 455 338 459 324 423 b 321 413 321 415 316 405 b 310 395 271 330 266 335 b 255 342 308 441 314 453 b 326 478 327 481 325 489 b 322 498 311 514 305 511 b 300 508 306 508 299 491 b 285 459 273 434 263 416 b 257 408 250 396 240 385 b 222 365 209 352 208 354 b 206 355 207 359 214 374 b 221 388 232 409 241 422 b 250 434 251 436 238 445 b 224 453 223 447 212 429 b 202 411 187 387 181 368 z m 235 471 b 229 460 233 457 239 453 b 245 449 250 447 253 453 b 257 458 264 467 270 478 b 276 488 272 493 264 502 b 256 511 246 515 244 506 b 242 498 240 482 235 471 z m 282 256 b 294 272 309 286 318 291 b 331 299 342 294 329 272 b 318 253 312 248 302 241 b 298 247 292 253 282 256 z m 286 27 b 281 -2 293 3 311 14 b 329 24 355 35 383 42 b 442 55 505 63 565 68 b 632 74 678 76 696 74 b 714 73 719 71 713 85 b 710 95 702 95 628 93 b 573 92 379 84 327 69 b 306 63 291 56 286 27 z m 306 194 b 303 191 304 182 310 173 b 316 165 325 158 334 167 l 368 202 b 353 184 340 167 347 145 b 349 136 361 112 371 114 b 385 115 398 137 413 162 b 417 168 421 175 424 181 b 417 164 402 139 405 133 b 409 126 414 121 419 117 b 424 112 428 110 438 120 b 446 129 455 144 464 159 b 464 146 475 140 483 134 b 498 125 519 160 525 170 b 532 181 541 193 548 204 b 541 192 526 166 528 159 b 534 141 548 126 557 137 l 575 164 b 575 151 580 138 589 129 b 601 116 613 115 624 126 b 628 131 642 151 653 172 l 665 195 b 658 176 652 160 655 157 b 664 148 670 148 678 156 b 686 163 700 178 718 205 l 725 215 b 720 206 706 182 706 177 b 708 164 718 155 729 148 b 737 143 748 140 756 148 b 764 155 776 176 781 184 b 787 195 784 198 772 199 b 833 206 881 285 855 341 b 849 352 839 356 825 351 b 800 342 793 319 807 324 b 834 334 852 259 794 223 b 794 223 811 255 797 272 b 778 294 762 285 748 263 b 743 265 740 266 725 240 b 720 232 713 222 705 213 b 687 193 674 180 672 182 b 671 183 672 187 679 201 b 686 216 697 237 705 250 b 714 262 716 264 702 272 b 689 281 687 275 677 257 b 671 248 617 147 609 153 b 599 161 652 259 657 271 b 669 297 671 299 668 308 b 666 316 653 334 647 328 b 645 327 648 324 642 310 b 634 290 626 273 619 259 b 615 267 606 272 601 274 b 593 276 583 277 567 258 b 560 249 552 238 545 226 b 540 219 536 211 534 208 b 523 190 506 170 498 160 b 480 147 519 217 520 219 b 525 229 528 236 528 240 b 527 246 524 249 520 254 b 509 264 505 261 505 255 b 504 248 493 229 461 178 b 447 157 436 145 434 145 b 430 144 431 154 438 169 b 454 205 466 218 469 226 b 472 234 468 241 458 251 b 449 261 446 261 442 247 b 440 235 425 213 414 192 l 408 183 b 393 161 380 146 377 155 b 375 162 394 200 403 217 l 414 238 b 416 242 420 249 404 247 b 434 255 502 287 527 287 b 553 287 560 279 563 277 b 566 275 573 280 572 294 b 571 308 559 321 538 320 b 518 318 459 292 437 284 l 437 286 b 438 292 433 302 430 307 b 424 316 416 321 416 306 b 416 297 413 288 405 275 l 403 272 b 391 269 379 269 372 279 b 369 284 363 273 365 262 b 366 249 372 240 384 240 b 384 241 378 229 349 210 b 337 202 325 195 316 193 b 310 192 308 196 306 194 z m 458 404 b 453 408 458 418 464 428 b 471 438 478 445 483 442 b 488 440 483 430 477 420 b 470 410 462 401 458 404 z m 555 169 b 552 172 558 190 575 219 b 592 247 606 259 610 255 b 614 251 604 231 589 209 b 574 186 558 167 555 169 z m 618 382 b 615 384 621 403 638 431 b 654 460 669 472 673 468 b 676 464 667 444 652 421 b 637 399 621 380 618 382 z m 699 299 b 694 288 697 285 704 281 b 710 277 714 275 718 281 b 722 286 728 295 735 306 b 741 316 737 321 728 330 b 720 339 711 343 709 334 b 707 326 704 310 699 299 z m 730 185 b 730 197 743 221 743 221 b 749 207 758 202 758 202 b 758 202 749 186 743 180 b 737 173 730 173 730 185 z m 740 392 b 737 394 743 413 760 441 b 776 469 791 481 795 477 b 798 474 789 453 774 431 b 759 408 743 389 740 392 z m 758 233 b 760 246 773 269 779 266 b 785 264 779 244 767 220 b 767 220 757 221 758 233 z"},",":{"x_min":0,"x_max":94,"ha":94,"o":"m 28 119 b 31 119 33 119 36 120 b 26 104 10 95 -3 95 l -9 87 b 19 81 48 110 55 141 b 58 153 52 162 40 162 b 27 162 15 153 12 141 b 8 128 15 119 28 119 z"},"n":{"x_min":0,"x_max":206,"ha":206,"o":"m -3 118 b 37 230 96 302 131 298 b 150 296 66 202 63 152 b 62 136 71 116 90 114 b 112 112 174 163 226 232 l 213 232 b 166 171 110 118 92 125 b 74 132 150 242 157 264 b 167 294 149 313 127 308 b 98 302 65 271 35 221 b 55 257 78 292 95 311 l 82 311 b 76 303 61 302 50 302 b 28 273 -27 188 -27 148 b -27 130 -16 119 -13 115 b -8 109 -3 116 -3 118 z"},"h":{"x_min":0,"x_max":198,"ha":198,"o":"m -18 113 b 22 225 88 302 123 298 b 142 296 58 202 55 152 b 54 136 63 116 82 114 b 104 112 166 163 218 232 l 205 232 b 158 171 102 118 84 125 b 66 132 142 242 149 264 b 159 294 141 313 119 308 b 100 304 77 287 54 262 b 114 357 192 467 218 500 l 205 500 b 199 492 184 491 173 491 b 97 380 -39 184 -39 141 b -39 123 -31 114 -28 110 b -23 104 -18 111 -18 113 z"},"z":{"x_min":0,"x_max":228,"ha":228,"o":"m 7 232 l 20 232 b 42 259 102 325 125 312 b 144 301 110 209 49 182 b 31 175 41 155 56 160 b 87 169 124 186 139 151 b 47 93 -57 62 -111 -11 b -181 -106 -144 -196 -67 -203 b 47 -213 160 -62 173 79 b 176 114 172 139 164 156 b 195 176 224 201 248 232 l 235 232 b 212 205 187 183 159 164 b 146 183 125 189 104 190 b 148 233 168 304 129 320 b 92 335 28 258 7 232 z m -103 -17 b -52 54 50 85 142 141 b 145 127 146 107 144 79 b 132 -55 11 -193 -65 -193 b -137 -193 -168 -107 -103 -17 z"},"B":{"x_min":0,"x_max":926,"ha":926,"o":"m 632 344 b 627 344 627 334 632 334 b 648 334 666 338 683 344 b 793 351 882 270 816 121 b 751 -28 497 -164 197 -63 b 330 5 439 186 546 351 b 636 488 732 620 828 664 b 854 625 861 577 842 520 b 822 458 749 382 679 355 b 664 353 648 349 632 344 z m -27 -25 b -37 -53 -10 -73 12 -80 b 74 -100 131 -94 184 -70 b 505 -184 777 -52 847 120 b 898 244 835 353 714 357 b 784 391 850 459 869 519 b 887 578 877 629 845 671 b 871 680 896 682 922 676 l 924 686 b 895 692 866 690 837 681 b 725 811 408 835 202 676 b 16 532 -41 276 103 182 b 203 117 341 192 410 294 b 481 396 501 537 447 585 b 353 668 146 511 158 279 l 168 281 b 158 509 363 632 428 586 b 486 545 460 409 390 309 b 322 211 189 136 108 193 b -7 274 49 515 230 654 b 433 810 725 798 821 675 b 712 632 603 500 514 363 b 403 193 286 14 159 -49 b 141 -42 122 -33 103 -24 b 25 14 -18 1 -27 -25 z m -18 -29 b -10 -9 28 0 99 -34 b 115 -42 131 -49 146 -55 b 103 -74 58 -79 12 -65 b -8 -59 -24 -43 -18 -29 z"},"K":{"x_min":0,"x_max":925,"ha":925,"o":"m 730 411 b 784 499 834 578 883 625 b 921 625 957 631 990 645 b 1012 654 1015 674 995 681 b 956 695 913 678 869 640 b 807 645 739 666 670 686 b 539 726 403 764 293 698 b 236 666 162 585 153 453 b 110 417 72 373 43 324 b -59 153 -32 -61 90 -120 b 310 -228 501 39 654 287 b 724 283 742 178 772 75 b 800 -17 856 -114 930 -116 b 980 -117 1037 -44 1039 -18 b 1041 -7 1020 -5 1018 -17 b 1012 -39 970 -109 930 -107 b 864 -104 833 -14 806 78 b 780 164 746 255 691 286 b 811 284 952 377 1068 473 b 1196 580 1293 696 1394 656 l 1398 666 b 1291 708 1166 604 1039 498 b 913 395 786 288 666 306 b 678 325 690 344 701 363 z m 76 301 b 98 337 124 371 152 401 b 154 380 156 358 161 334 l 171 336 b 166 363 163 387 162 411 b 252 502 363 553 449 505 b 553 445 472 196 422 118 b 348 2 258 -63 203 -14 b 129 51 219 283 332 321 l 328 332 b 207 290 116 49 197 -23 b 258 -76 369 -15 441 104 b 489 184 586 445 458 519 b 372 570 258 536 163 461 b 174 584 243 658 297 689 b 404 752 536 707 667 668 b 731 649 795 631 855 627 b 801 576 745 497 691 411 l 661 363 b 500 100 292 -205 94 -106 b -2 -58 -24 137 76 301 z m 897 639 b 929 665 961 678 993 670 b 1004 667 1000 661 986 655 b 958 643 928 639 897 639 z"},"R":{"x_min":0,"x_max":808,"ha":808,"o":"m 19 -100 b 230 -154 373 52 511 266 b 583 264 613 159 644 55 b 672 -37 728 -134 802 -136 b 852 -137 909 -64 911 -38 b 913 -27 892 -25 890 -37 b 884 -59 842 -129 802 -127 b 736 -124 705 -34 678 58 b 657 126 626 198 585 239 b 677 246 837 324 888 441 b 923 522 907 596 859 653 b 882 660 906 661 929 656 l 931 666 b 904 672 877 670 850 662 b 732 789 456 828 268 683 b 82 539 21 299 165 205 b 265 140 395 208 464 310 b 535 412 567 544 513 592 b 419 675 212 518 224 286 l 234 288 b 224 516 429 639 494 593 b 552 552 514 425 444 325 b 376 227 251 159 170 216 b 55 297 115 522 296 661 b 480 802 732 775 835 658 b 724 618 612 483 521 343 b 368 109 209 -132 19 -85 b -42 -70 -58 8 24 90 b 70 136 153 168 198 134 b 257 90 134 -32 85 -40 l 85 -50 b 171 -69 274 90 204 142 b 148 184 65 147 15 97 b -74 8 -48 -83 19 -100 z m 517 276 l 553 331 b 645 472 744 607 843 647 b 884 594 896 523 860 442 b 809 328 655 251 574 249 b 557 264 538 274 517 276 z"},"T":{"x_min":0,"x_max":700,"ha":700,"o":"m 42 17 b 60 -20 88 -50 125 -67 b 368 -178 532 103 693 351 b 781 484 874 613 968 660 l 972 659 b 1158 598 1311 548 1372 657 l 1364 661 b 1307 558 1164 606 980 666 b 1010 679 1039 683 1069 676 l 1071 686 b 1035 694 998 688 962 672 b 742 745 463 845 224 714 b 20 603 -6 360 75 273 b 238 98 553 361 583 575 l 573 577 b 543 367 223 130 83 279 b 4 364 36 580 234 689 b 467 815 731 737 949 667 b 847 617 745 492 661 363 b 500 116 327 -146 129 -53 b 97 -38 73 -7 59 33 b 53 45 35 33 42 17 z"},"P":{"x_min":0,"x_max":786,"ha":786,"o":"m 578 247 b 668 248 834 314 887 436 b 922 517 906 591 858 648 b 881 655 905 656 928 651 l 930 661 b 903 667 876 665 849 657 b 731 784 455 823 267 678 b 81 534 20 294 164 200 b 264 135 394 203 463 305 b 534 407 566 539 512 587 b 418 670 211 513 223 281 l 233 283 b 223 511 428 634 493 588 b 551 547 513 420 443 320 b 375 222 250 154 169 211 b 54 292 114 517 295 656 b 479 797 731 770 834 653 b 723 613 611 478 520 338 b 367 104 208 -137 18 -90 b -43 -75 -59 3 23 85 b 69 131 152 163 197 129 b 256 85 133 -37 84 -45 l 84 -55 b 170 -74 273 85 203 137 b 147 179 64 142 14 92 b -75 3 -49 -88 18 -105 b 250 -164 400 91 552 326 b 644 467 743 602 842 642 b 883 589 895 518 859 437 b 808 323 658 259 578 257 b 573 257 573 247 578 247 z"},"t":{"x_min":0,"x_max":112,"ha":112,"o":"m 173 491 b 163 477 152 461 141 444 b 50 468 -48 482 -130 397 l -122 391 b -45 470 46 459 135 436 b 55 321 -54 164 -45 127 b -40 109 -15 101 3 106 b 45 116 108 203 132 232 l 119 232 b 91 199 23 105 -10 117 b -38 127 87 316 166 428 l 176 425 b 262 401 344 378 399 443 l 391 449 b 341 390 265 411 178 434 l 171 436 b 192 465 208 487 218 500 l 205 500 b 199 492 184 491 173 491 z"},"M":{"x_min":0,"x_max":1261,"ha":1261,"o":"m 1466 15 b 1473 -53 1402 -108 1331 -98 b 1050 -60 1156 474 1424 695 b 1467 713 1509 722 1547 719 b 1553 718 1556 727 1549 729 b 1348 760 1051 450 896 192 b 911 243 920 297 925 353 b 935 471 945 601 1015 680 b 1014 682 1012 685 1007 686 b 899 709 775 544 657 363 b 496 116 298 -146 100 -53 b 4 -8 -18 175 82 329 b 176 473 339 582 455 521 b 559 464 478 230 428 157 b 354 48 264 -13 209 33 b 135 94 225 312 338 348 l 334 358 b 213 319 122 92 203 25 b 264 -25 375 32 447 144 b 495 219 592 464 464 534 b 335 605 143 499 49 351 b -53 190 -26 -11 96 -67 b 339 -178 528 103 689 351 b 805 528 899 692 999 677 b 932 596 894 472 884 358 b 876 262 874 172 842 92 l 830 67 b 825 57 819 46 812 36 l 820 30 b 843 64 861 99 876 137 b 982 328 1185 564 1368 667 b 1112 425 1009 -63 1329 -108 b 1407 -119 1493 -59 1485 17 b 1483 34 1463 31 1466 15 z"},"g":{"x_min":0,"x_max":198,"ha":198,"o":"m 218 232 l 205 232 b 160 179 120 142 78 114 b 94 143 109 170 122 193 b 141 230 174 278 205 311 l 192 311 b 186 303 171 302 160 302 l 148 287 b 146 297 140 304 131 308 b 39 351 -58 148 8 123 b 22 117 39 123 59 139 l 28 86 b 0 73 -30 62 -64 52 b -134 32 -201 13 -251 -21 b -363 -97 -349 -238 -232 -226 b -115 -214 -11 -45 67 94 b 120 124 166 166 218 232 z m -245 -29 b -197 4 -131 22 -62 42 b -33 50 -6 60 19 70 b -58 -60 -155 -204 -234 -216 b -339 -232 -349 -99 -245 -29 z m 14 135 b -18 149 76 322 130 297 b 136 294 141 283 137 271 b 117 245 101 220 91 199 b 57 150 30 128 14 135 z"},"j":{"x_min":0,"x_max":113,"ha":113,"o":"m 133 232 l 120 232 b 69 172 18 133 -37 104 b -19 137 -3 167 12 193 b 31 230 64 278 95 311 l 82 311 b 76 303 61 302 50 302 b 29 275 -21 183 -81 84 b -111 72 -141 61 -174 52 b -244 32 -311 13 -361 -21 b -473 -97 -459 -238 -342 -226 b -227 -214 -124 -50 -47 88 b 18 118 77 162 133 232 z m -355 -29 b -307 4 -241 22 -172 42 b -144 50 -116 59 -90 69 b -172 -64 -271 -205 -344 -216 b -449 -232 -459 -99 -355 -29 z m 73 349 b 73 339 81 331 91 331 b 100 331 108 339 108 349 b 108 358 100 366 91 366 b 81 366 73 358 73 349 z"},"i":{"x_min":0,"x_max":117,"ha":117,"o":"m 95 331 b 104 331 112 339 112 349 b 112 358 104 366 95 366 b 85 366 77 358 77 349 b 77 339 85 331 95 331 z m -1 127 b 42 116 109 199 137 232 l 124 232 b 96 199 37 128 4 139 b -17 146 44 252 99 311 l 86 311 b 80 303 65 302 54 302 b -11 221 -56 141 -1 127 z"},"y":{"x_min":0,"x_max":232,"ha":232,"o":"m 252 232 l 239 232 b 188 172 137 133 82 104 b 100 137 116 167 131 193 b 150 230 183 278 214 311 l 201 311 b 195 303 180 302 169 302 b 144 271 122 240 107 213 b 77 177 31 130 4 139 b -17 146 44 249 99 311 l 86 311 b 80 303 65 302 54 302 b -11 221 -56 141 -1 127 b 25 120 60 149 90 179 b 74 150 55 117 35 83 b 7 71 -23 61 -55 52 b -125 32 -192 13 -242 -21 b -354 -97 -340 -238 -223 -226 b -108 -214 -5 -50 72 88 b 137 118 196 162 252 232 z m -236 -29 b -188 4 -122 22 -53 42 b -25 50 1 58 27 68 b -50 -62 -146 -204 -225 -216 b -330 -232 -340 -99 -236 -29 z"},"@":{"x_min":0,"x_max":469,"ha":469,"o":"m 293 47 l 262 47 b 237 34 209 27 183 27 b 88 27 32 115 58 222 b 83 328 183 416 277 416 b 365 416 431 340 415 243 b 402 165 359 117 297 94 b 218 65 225 138 244 184 b 262 222 298 275 331 311 l 318 311 b 312 303 297 302 286 302 l 274 287 b 272 297 266 304 257 308 b 165 351 68 148 134 123 b 153 116 176 127 204 159 b 198 111 221 59 297 84 b 365 107 424 164 438 243 b 456 346 384 426 280 426 b 168 426 53 334 25 222 b -2 109 68 17 181 17 b 219 17 258 28 293 47 z m 140 135 b 108 149 202 322 256 297 b 262 294 267 283 262 271 b 243 245 227 219 216 197 b 183 149 156 128 140 135 z"},"p":{"x_min":0,"x_max":203,"ha":203,"o":"m -144 -96 b -153 -73 -69 69 7 188 b 55 256 101 301 128 298 b 147 296 63 202 60 152 b 59 136 68 116 87 114 b 109 112 171 163 223 232 l 210 232 b 163 171 107 118 89 125 b 71 132 147 242 154 264 b 164 294 146 313 124 308 b 103 303 79 286 53 258 b 81 300 104 333 115 348 l 102 348 b 96 340 81 339 70 339 b -6 228 -174 -25 -167 -69 b -165 -82 -159 -96 -151 -102 b -146 -105 -142 -104 -144 -96 z"},"X":{"x_min":0,"x_max":952,"ha":952,"o":"m 453 248 b 396 122 232 -92 103 -115 b -6 -135 -47 -54 -27 36 b -4 139 71 192 118 174 b 190 149 138 27 103 -7 b 83 -25 114 -35 129 -20 b 166 16 202 155 122 184 b 69 202 -15 146 -37 38 b -57 -60 -13 -128 73 -131 b 194 -135 329 -76 461 158 b 438 20 476 -69 519 -103 b 644 -199 810 23 972 232 l 959 232 b 818 56 647 -174 544 -99 b 479 -52 435 89 559 364 b 616 490 780 704 909 727 b 970 738 1009 718 1029 682 b 1045 654 1048 616 1039 576 b 1016 473 941 420 894 438 b 822 463 874 585 909 619 b 929 637 898 647 883 632 b 846 596 810 457 890 428 b 943 410 1027 466 1049 574 b 1058 617 1054 654 1040 682 b 1023 719 987 741 939 743 b 843 747 698 673 563 427 b 586 579 538 681 493 715 b 411 776 282 739 167 608 b 58 484 21 335 86 283 b 187 202 373 470 335 577 b 332 583 322 581 325 573 b 352 521 172 230 92 287 b 40 324 69 462 174 584 b 285 714 405 755 468 711 b 534 665 577 523 453 248 z"},"Y":{"x_min":0,"x_max":603,"ha":603,"o":"m 48 -100 b -19 -83 -45 8 44 97 b 94 147 177 184 233 142 b 303 90 192 -56 114 -50 l 114 -40 b 163 -32 286 90 227 134 b 182 168 99 136 53 90 b -29 8 -13 -70 48 -85 b 238 -132 397 109 550 343 b 597 416 650 487 706 544 b 729 568 752 589 776 608 b 789 616 803 625 816 632 l 812 619 b 778 599 741 573 706 544 b 668 514 631 481 598 447 b 474 323 346 194 259 239 b 181 279 253 400 334 500 b 404 585 485 651 452 684 b 425 711 298 730 170 616 b 38 499 24 378 63 356 b 122 323 330 577 303 627 l 311 627 b 356 555 161 291 61 347 b 6 378 24 519 151 635 b 286 758 425 726 460 692 b 501 653 434 557 364 471 b 283 372 216 273 270 243 b 325 213 467 330 590 454 b 645 509 712 566 776 608 b 837 654 900 679 960 666 l 958 656 b 830 685 701 512 582 331 b 430 96 280 -159 48 -100 z"},"c":{"x_min":0,"x_max":154,"ha":154,"o":"m 174 232 l 161 232 b 113 174 54 114 25 128 b -21 150 79 323 123 298 b 140 289 105 269 106 253 b 107 240 121 240 129 250 b 145 270 152 295 129 309 b 50 356 -70 155 19 117 b 60 100 121 166 174 232 z"},"/":{"x_min":0,"x_max":113,"ha":113,"o":"m -25 -105 l 169 680 l 151 680 l -43 -105 z"},"[":{"x_min":0,"x_max":961,"ha":961,"o":"m 96 275 b 145 288 168 321 166 345 b 165 369 125 371 112 383 b 99 395 93 406 107 435 b 121 464 159 496 174 505 b 189 514 201 508 186 482 b 171 457 155 436 138 427 b 131 423 140 410 148 403 b 156 395 160 392 173 403 b 186 414 216 459 221 482 b 225 505 219 514 208 526 b 176 559 51 484 57 405 b 61 363 114 354 126 348 b 145 339 120 315 91 317 b 77 318 62 328 51 344 b 48 347 42 353 36 338 b 30 323 46 262 96 275 z m 105 245 b 105 239 111 208 136 209 b 152 209 187 220 222 227 b 220 220 220 213 220 206 b 223 170 264 163 274 157 b 294 148 271 129 244 135 b 235 137 226 146 219 153 b 216 156 211 161 206 148 b 201 136 214 84 257 95 b 291 104 309 134 308 155 b 307 175 281 177 270 187 b 260 197 255 205 263 225 b 253 229 238 229 222 227 b 253 233 284 236 297 225 b 299 222 302 219 304 217 b 311 211 314 208 325 218 b 336 227 354 252 358 271 b 362 291 357 299 348 309 b 327 330 267 299 237 257 b 192 254 125 249 115 258 b 110 263 104 258 105 245 z m 181 368 b 174 349 179 341 191 329 b 199 320 206 320 214 328 b 222 335 234 349 251 373 b 243 359 231 340 233 335 b 235 326 239 317 246 310 b 257 298 263 295 273 307 b 277 312 293 332 305 353 b 316 373 325 390 330 403 b 326 391 319 369 320 364 b 323 351 327 341 331 336 b 340 325 350 318 362 316 b 374 314 366 321 373 339 b 379 355 398 392 423 421 b 412 400 411 376 415 363 b 420 351 452 330 467 327 b 473 326 480 329 487 335 b 504 353 521 389 529 406 b 532 411 535 418 537 425 b 534 425 530 426 527 428 b 541 426 561 444 561 444 b 561 444 550 423 537 394 b 526 371 526 364 542 348 b 546 344 550 341 555 341 l 557 341 b 566 343 582 367 592 386 l 604 407 b 598 394 590 374 592 369 b 598 352 611 340 619 350 b 624 356 631 365 638 377 b 638 364 643 351 652 341 b 664 329 676 327 686 339 b 690 344 704 363 716 385 b 719 390 722 395 724 401 b 720 389 715 372 717 369 b 724 357 735 351 741 360 b 747 367 758 382 768 398 b 769 389 774 378 779 371 b 793 352 811 377 821 388 b 835 405 848 429 856 447 b 852 436 840 411 842 403 b 845 391 849 381 853 376 b 862 366 872 359 884 357 b 896 355 888 361 895 379 b 902 397 923 439 951 468 b 980 497 993 491 979 504 b 965 516 955 518 943 508 b 931 497 885 434 870 384 b 870 384 863 408 869 432 b 876 456 886 467 889 470 b 891 472 886 480 877 488 b 868 496 860 499 846 464 l 843 457 l 837 446 b 825 424 808 405 801 400 b 795 396 796 403 800 412 b 803 420 815 447 822 454 b 828 462 820 469 816 473 b 811 477 809 474 809 474 l 807 470 l 807 471 b 807 484 793 494 786 496 b 778 498 765 499 749 480 b 738 467 726 448 717 429 l 708 413 b 694 391 676 363 672 366 b 662 374 714 472 720 484 b 732 509 734 512 731 521 b 729 529 717 545 712 542 b 707 539 712 539 705 523 b 696 503 689 486 682 472 b 678 480 669 485 664 487 b 656 489 646 490 630 471 b 622 462 613 449 606 435 b 602 429 566 370 561 375 b 559 376 560 379 568 398 b 576 417 585 435 594 449 b 602 463 597 466 591 470 b 584 474 583 477 574 471 b 564 465 543 458 531 458 b 520 459 518 465 515 463 b 512 461 512 460 512 454 b 512 449 513 434 523 429 b 512 412 496 378 477 361 b 464 348 448 352 445 363 b 442 373 442 385 448 401 b 452 390 467 383 474 385 b 481 386 493 401 499 418 b 504 436 500 441 495 446 b 491 451 476 464 465 462 b 465 461 470 456 467 452 b 465 448 454 447 434 432 b 435 433 450 447 461 453 b 464 455 463 458 457 463 b 443 475 433 478 421 467 b 409 457 363 394 348 344 b 348 344 341 368 347 392 b 354 416 364 427 367 429 b 370 432 365 440 355 447 b 346 455 338 459 324 423 b 321 413 321 415 316 405 b 310 395 271 330 266 335 b 255 342 308 441 314 453 b 326 478 327 481 325 489 b 322 498 311 514 305 511 b 300 508 306 508 299 491 b 285 459 273 434 263 416 b 257 408 250 396 240 385 b 222 365 209 352 208 354 b 206 355 207 359 214 374 b 221 388 232 409 241 422 b 250 434 251 436 238 445 b 224 453 223 447 212 429 b 202 411 187 387 181 368 z m 235 471 b 229 460 233 457 239 453 b 245 449 250 447 253 453 b 257 458 264 467 270 478 b 276 488 272 493 264 502 b 256 511 246 515 244 506 b 242 498 240 482 235 471 z m 282 256 b 294 272 309 286 318 291 b 331 299 342 294 329 272 b 318 253 312 248 302 241 b 298 247 292 253 282 256 z m 286 27 b 281 -2 293 3 311 14 b 329 24 355 35 383 42 b 442 55 505 63 565 68 b 632 74 678 76 696 74 b 714 73 719 71 713 85 b 710 95 702 95 628 93 b 573 92 379 84 327 69 b 306 63 291 56 286 27 z m 306 194 b 303 191 304 182 310 173 b 316 165 325 158 334 167 l 368 202 b 353 184 340 167 347 145 b 349 136 361 112 371 114 b 385 115 398 137 413 162 b 417 168 421 175 424 181 b 417 164 402 139 405 133 b 409 126 414 121 419 117 b 424 112 428 110 438 120 b 446 129 455 144 464 159 b 464 146 475 140 483 134 b 498 125 519 160 525 170 b 532 181 541 193 548 204 b 541 192 526 166 528 159 b 534 141 548 126 557 137 l 575 164 b 575 151 580 138 589 129 b 601 116 613 115 624 126 b 628 131 642 151 653 172 l 665 195 b 658 176 652 160 655 157 b 664 148 670 148 678 156 b 686 163 700 178 718 205 l 725 215 b 720 206 706 182 706 177 b 708 164 718 155 729 148 b 737 143 748 140 756 148 b 764 155 776 176 781 184 b 787 195 784 198 772 199 b 833 206 881 285 855 341 b 849 352 839 356 825 351 b 800 342 793 319 807 324 b 834 334 852 259 794 223 b 794 223 811 255 797 272 b 778 294 762 285 748 263 b 743 265 740 266 725 240 b 720 232 713 222 705 213 b 687 193 674 180 672 182 b 671 183 672 187 679 201 b 686 216 697 237 705 250 b 714 262 716 264 702 272 b 689 281 687 275 677 257 b 671 248 617 147 609 153 b 599 161 652 259 657 271 b 669 297 671 299 668 308 b 666 316 653 334 647 328 b 645 327 648 324 642 310 b 634 290 626 273 619 259 b 615 267 606 272 601 274 b 593 276 583 277 567 258 b 560 249 552 238 545 226 b 540 219 536 211 534 208 b 523 190 506 170 498 160 b 480 147 519 217 520 219 b 525 229 528 236 528 240 b 527 246 524 249 520 254 b 509 264 505 261 505 255 b 504 248 493 229 461 178 b 447 157 436 145 434 145 b 430 144 431 154 438 169 b 454 205 466 218 469 226 b 472 234 468 241 458 251 b 449 261 446 261 442 247 b 440 235 425 213 414 192 l 408 183 b 393 161 380 146 377 155 b 375 162 394 200 403 217 l 414 238 b 416 242 420 249 404 247 b 434 255 502 287 527 287 b 553 287 560 279 563 277 b 566 275 573 280 572 294 b 571 308 559 321 538 320 b 518 318 459 292 437 284 l 437 286 b 438 292 433 302 430 307 b 424 316 416 321 416 306 b 416 297 413 288 405 275 l 403 272 b 391 269 379 269 372 279 b 369 284 363 273 365 262 b 366 249 372 240 384 240 b 384 241 378 229 349 210 b 337 202 325 195 316 193 b 310 192 308 196 306 194 z m 458 404 b 453 408 458 418 464 428 b 471 438 478 445 483 442 b 488 440 483 430 477 420 b 470 410 462 401 458 404 z m 555 169 b 552 172 558 190 575 219 b 592 247 606 259 610 255 b 614 251 604 231 589 209 b 574 186 558 167 555 169 z m 618 382 b 615 384 621 403 638 431 b 654 460 669 472 673 468 b 676 464 667 444 652 421 b 637 399 621 380 618 382 z m 699 299 b 694 288 697 285 704 281 b 710 277 714 275 718 281 b 722 286 728 295 735 306 b 741 316 737 321 728 330 b 720 339 711 343 709 334 b 707 326 704 310 699 299 z m 730 185 b 730 197 743 221 743 221 b 749 207 758 202 758 202 b 758 202 749 186 743 180 b 737 173 730 173 730 185 z m 740 392 b 737 394 743 413 760 441 b 776 469 791 481 795 477 b 798 474 789 453 774 431 b 759 408 743 389 740 392 z m 758 233 b 760 246 773 269 779 266 b 785 264 779 244 767 220 b 767 220 757 221 758 233 z"},"6":{"x_min":0,"x_max":929,"ha":929,"o":"m 65 275 b 114 288 137 321 135 345 b 134 369 94 371 81 383 b 68 395 62 406 76 435 b 90 464 128 496 143 505 b 158 514 170 508 155 482 b 140 457 124 436 107 427 b 100 423 109 410 117 403 b 125 395 129 392 142 403 b 155 414 185 459 190 482 b 194 505 188 514 177 526 b 145 559 20 484 26 405 b 30 363 83 354 95 348 b 114 339 89 315 60 317 b 46 318 31 328 20 344 b 17 347 11 353 5 338 b -1 323 15 262 65 275 z m 74 245 b 74 239 80 208 105 209 b 121 209 156 220 191 227 b 189 220 189 213 189 206 b 192 170 233 163 243 157 b 263 148 240 129 213 135 b 204 137 195 146 188 153 b 185 156 180 161 175 148 b 170 136 183 84 226 95 b 260 104 278 134 277 155 b 276 175 250 177 239 187 b 229 197 224 205 232 225 b 222 229 207 229 191 227 b 222 233 253 236 266 225 b 268 222 271 219 273 217 b 280 211 283 208 294 218 b 305 227 323 252 327 271 b 331 291 326 299 317 309 b 296 330 236 299 206 257 b 161 254 94 249 84 258 b 79 263 73 258 74 245 z m 150 368 b 143 349 148 341 160 329 b 168 320 175 320 183 328 b 191 335 203 349 220 373 b 212 359 200 340 202 335 b 204 326 208 317 215 310 b 226 298 232 295 242 307 b 246 312 262 332 274 353 b 285 373 294 390 299 403 b 295 391 288 369 289 364 b 292 351 296 341 300 336 b 309 325 319 318 331 316 b 343 314 335 321 342 339 b 348 355 367 392 392 421 b 381 400 380 376 384 363 b 389 351 421 330 436 327 b 442 326 449 329 456 335 b 473 353 490 389 498 406 b 501 411 504 418 506 425 b 503 425 499 426 496 428 b 510 426 530 444 530 444 b 530 444 519 423 506 394 b 495 371 495 364 511 348 b 515 344 519 341 524 341 l 526 341 b 535 343 551 367 561 386 l 573 407 b 567 394 559 374 561 369 b 567 352 580 340 588 350 b 593 356 600 365 607 377 b 607 364 612 351 621 341 b 633 329 645 327 655 339 b 659 344 673 363 685 385 b 688 390 691 395 693 401 b 689 389 684 372 686 369 b 693 357 704 351 710 360 b 716 367 727 382 737 398 b 738 389 743 378 748 371 b 762 352 780 377 790 388 b 804 405 817 429 825 447 b 821 436 809 411 811 403 b 814 391 818 381 822 376 b 831 366 841 359 853 357 b 865 355 857 361 864 379 b 871 397 892 439 920 468 b 949 497 962 491 948 504 b 934 516 924 518 912 508 b 900 497 854 434 839 384 b 839 384 832 408 838 432 b 845 456 855 467 858 470 b 860 472 855 480 846 488 b 837 496 829 499 815 464 l 812 457 l 806 446 b 794 424 777 405 770 400 b 764 396 765 403 769 412 b 772 420 784 447 791 454 b 797 462 789 469 785 473 b 780 477 778 474 778 474 l 776 470 l 776 471 b 776 484 762 494 755 496 b 747 498 734 499 718 480 b 707 467 695 448 686 429 l 677 413 b 663 391 645 363 641 366 b 631 374 683 472 689 484 b 701 509 703 512 700 521 b 698 529 686 545 681 542 b 676 539 681 539 674 523 b 665 503 658 486 651 472 b 647 480 638 485 633 487 b 625 489 615 490 599 471 b 591 462 582 449 575 435 b 571 429 535 370 530 375 b 528 376 529 379 537 398 b 545 417 554 435 563 449 b 571 463 566 466 560 470 b 553 474 552 477 543 471 b 533 465 512 458 500 458 b 489 459 487 465 484 463 b 481 461 481 460 481 454 b 481 449 482 434 492 429 b 481 412 465 378 446 361 b 433 348 417 352 414 363 b 411 373 411 385 417 401 b 421 390 436 383 443 385 b 450 386 462 401 468 418 b 473 436 469 441 464 446 b 460 451 445 464 434 462 b 434 461 439 456 436 452 b 434 448 423 447 403 432 b 404 433 419 447 430 453 b 433 455 432 458 426 463 b 412 475 402 478 390 467 b 378 457 332 394 317 344 b 317 344 310 368 316 392 b 323 416 333 427 336 429 b 339 432 334 440 324 447 b 315 455 307 459 293 423 b 290 413 290 415 285 405 b 279 395 240 330 235 335 b 224 342 277 441 283 453 b 295 478 296 481 294 489 b 291 498 280 514 274 511 b 269 508 275 508 268 491 b 254 459 242 434 232 416 b 226 408 219 396 209 385 b 191 365 178 352 177 354 b 175 355 176 359 183 374 b 190 388 201 409 210 422 b 219 434 220 436 207 445 b 193 453 192 447 181 429 b 171 411 156 387 150 368 z m 204 471 b 198 460 202 457 208 453 b 214 449 219 447 222 453 b 226 458 233 467 239 478 b 245 488 241 493 233 502 b 225 511 215 515 213 506 b 211 498 209 482 204 471 z m 251 256 b 263 272 278 286 287 291 b 300 299 311 294 298 272 b 287 253 281 248 271 241 b 267 247 261 253 251 256 z m 255 27 b 250 -2 262 3 280 14 b 298 24 324 35 352 42 b 411 55 474 63 534 68 b 601 74 647 76 665 74 b 683 73 688 71 682 85 b 679 95 671 95 597 93 b 542 92 348 84 296 69 b 275 63 260 56 255 27 z m 275 194 b 272 191 273 182 279 173 b 285 165 294 158 303 167 l 337 202 b 322 184 309 167 316 145 b 318 136 330 112 340 114 b 354 115 367 137 382 162 b 386 168 390 175 393 181 b 386 164 371 139 374 133 b 378 126 383 121 388 117 b 393 112 397 110 407 120 b 415 129 424 144 433 159 b 433 146 444 140 452 134 b 467 125 488 160 494 170 b 501 181 510 193 517 204 b 510 192 495 166 497 159 b 503 141 517 126 526 137 l 544 164 b 544 151 549 138 558 129 b 570 116 582 115 593 126 b 597 131 611 151 622 172 l 634 195 b 627 176 621 160 624 157 b 633 148 639 148 647 156 b 655 163 669 178 687 205 l 694 215 b 689 206 675 182 675 177 b 677 164 687 155 698 148 b 706 143 717 140 725 148 b 733 155 745 176 750 184 b 756 195 753 198 741 199 b 802 206 850 285 824 341 b 818 352 808 356 794 351 b 769 342 762 319 776 324 b 803 334 821 259 763 223 b 763 223 780 255 766 272 b 747 294 731 285 717 263 b 712 265 709 266 694 240 b 689 232 682 222 674 213 b 656 193 643 180 641 182 b 640 183 641 187 648 201 b 655 216 666 237 674 250 b 683 262 685 264 671 272 b 658 281 656 275 646 257 b 640 248 586 147 578 153 b 568 161 621 259 626 271 b 638 297 640 299 637 308 b 635 316 622 334 616 328 b 614 327 617 324 611 310 b 603 290 595 273 588 259 b 584 267 575 272 570 274 b 562 276 552 277 536 258 b 529 249 521 238 514 226 b 509 219 505 211 503 208 b 492 190 475 170 467 160 b 449 147 488 217 489 219 b 494 229 497 236 497 240 b 496 246 493 249 489 254 b 478 264 474 261 474 255 b 473 248 462 229 430 178 b 416 157 405 145 403 145 b 399 144 400 154 407 169 b 423 205 435 218 438 226 b 441 234 437 241 427 251 b 418 261 415 261 411 247 b 409 235 394 213 383 192 l 377 183 b 362 161 349 146 346 155 b 344 162 363 200 372 217 l 383 238 b 385 242 389 249 373 247 b 403 255 471 287 496 287 b 522 287 529 279 532 277 b 535 275 542 280 541 294 b 540 308 528 321 507 320 b 487 318 428 292 406 284 l 406 286 b 407 292 402 302 399 307 b 393 316 385 321 385 306 b 385 297 382 288 374 275 l 372 272 b 360 269 348 269 341 279 b 338 284 332 273 334 262 b 335 249 341 240 353 240 b 353 241 347 229 318 210 b 306 202 294 195 285 193 b 279 192 277 196 275 194 z m 427 404 b 422 408 427 418 433 428 b 440 438 447 445 452 442 b 457 440 452 430 446 420 b 439 410 431 401 427 404 z m 524 169 b 521 172 527 190 544 219 b 561 247 575 259 579 255 b 583 251 573 231 558 209 b 543 186 527 167 524 169 z m 587 382 b 584 384 590 403 607 431 b 623 460 638 472 642 468 b 645 464 636 444 621 421 b 606 399 590 380 587 382 z m 668 299 b 663 288 666 285 673 281 b 679 277 683 275 687 281 b 691 286 697 295 704 306 b 710 316 706 321 697 330 b 689 339 680 343 678 334 b 676 326 673 310 668 299 z m 699 185 b 699 197 712 221 712 221 b 718 207 727 202 727 202 b 727 202 718 186 712 180 b 706 173 699 173 699 185 z m 709 392 b 706 394 712 413 729 441 b 745 469 760 481 764 477 b 767 474 758 453 743 431 b 728 408 712 389 709 392 z m 727 233 b 729 246 742 269 748 266 b 754 264 748 244 736 220 b 736 220 726 221 727 233 z"},"r":{"x_min":0,"x_max":181,"ha":181,"o":"m 201 232 l 188 232 b 141 175 89 123 60 135 b 22 151 103 223 121 257 b 130 274 98 288 89 299 b 84 305 96 310 103 318 b 118 335 92 361 74 343 b 65 334 63 321 68 309 b 50 284 34 265 7 232 l 20 232 b 40 258 54 273 73 299 b 76 297 78 294 81 292 b 91 283 102 277 98 272 b 90 263 30 206 26 160 b 25 144 35 131 54 125 b 96 111 147 163 201 232 z"},"2":{"x_min":0,"x_max":929,"ha":929,"o":"m 65 275 b 114 288 137 321 135 345 b 134 369 94 371 81 383 b 68 395 62 406 76 435 b 90 464 128 496 143 505 b 158 514 170 508 155 482 b 140 457 124 436 107 427 b 100 423 109 410 117 403 b 125 395 129 392 142 403 b 155 414 185 459 190 482 b 194 505 188 514 177 526 b 145 559 20 484 26 405 b 30 363 83 354 95 348 b 114 339 89 315 60 317 b 46 318 31 328 20 344 b 17 347 11 353 5 338 b -1 323 15 262 65 275 z m 74 245 b 74 239 80 208 105 209 b 121 209 156 220 191 227 b 189 220 189 213 189 206 b 192 170 233 163 243 157 b 263 148 240 129 213 135 b 204 137 195 146 188 153 b 185 156 180 161 175 148 b 170 136 183 84 226 95 b 260 104 278 134 277 155 b 276 175 250 177 239 187 b 229 197 224 205 232 225 b 222 229 207 229 191 227 b 222 233 253 236 266 225 b 268 222 271 219 273 217 b 280 211 283 208 294 218 b 305 227 323 252 327 271 b 331 291 326 299 317 309 b 296 330 236 299 206 257 b 161 254 94 249 84 258 b 79 263 73 258 74 245 z m 150 368 b 143 349 148 341 160 329 b 168 320 175 320 183 328 b 191 335 203 349 220 373 b 212 359 200 340 202 335 b 204 326 208 317 215 310 b 226 298 232 295 242 307 b 246 312 262 332 274 353 b 285 373 294 390 299 403 b 295 391 288 369 289 364 b 292 351 296 341 300 336 b 309 325 319 318 331 316 b 343 314 335 321 342 339 b 348 355 367 392 392 421 b 381 400 380 376 384 363 b 389 351 421 330 436 327 b 442 326 449 329 456 335 b 473 353 490 389 498 406 b 501 411 504 418 506 425 b 503 425 499 426 496 428 b 510 426 530 444 530 444 b 530 444 519 423 506 394 b 495 371 495 364 511 348 b 515 344 519 341 524 341 l 526 341 b 535 343 551 367 561 386 l 573 407 b 567 394 559 374 561 369 b 567 352 580 340 588 350 b 593 356 600 365 607 377 b 607 364 612 351 621 341 b 633 329 645 327 655 339 b 659 344 673 363 685 385 b 688 390 691 395 693 401 b 689 389 684 372 686 369 b 693 357 704 351 710 360 b 716 367 727 382 737 398 b 738 389 743 378 748 371 b 762 352 780 377 790 388 b 804 405 817 429 825 447 b 821 436 809 411 811 403 b 814 391 818 381 822 376 b 831 366 841 359 853 357 b 865 355 857 361 864 379 b 871 397 892 439 920 468 b 949 497 962 491 948 504 b 934 516 924 518 912 508 b 900 497 854 434 839 384 b 839 384 832 408 838 432 b 845 456 855 467 858 470 b 860 472 855 480 846 488 b 837 496 829 499 815 464 l 812 457 l 806 446 b 794 424 777 405 770 400 b 764 396 765 403 769 412 b 772 420 784 447 791 454 b 797 462 789 469 785 473 b 780 477 778 474 778 474 l 776 470 l 776 471 b 776 484 762 494 755 496 b 747 498 734 499 718 480 b 707 467 695 448 686 429 l 677 413 b 663 391 645 363 641 366 b 631 374 683 472 689 484 b 701 509 703 512 700 521 b 698 529 686 545 681 542 b 676 539 681 539 674 523 b 665 503 658 486 651 472 b 647 480 638 485 633 487 b 625 489 615 490 599 471 b 591 462 582 449 575 435 b 571 429 535 370 530 375 b 528 376 529 379 537 398 b 545 417 554 435 563 449 b 571 463 566 466 560 470 b 553 474 552 477 543 471 b 533 465 512 458 500 458 b 489 459 487 465 484 463 b 481 461 481 460 481 454 b 481 449 482 434 492 429 b 481 412 465 378 446 361 b 433 348 417 352 414 363 b 411 373 411 385 417 401 b 421 390 436 383 443 385 b 450 386 462 401 468 418 b 473 436 469 441 464 446 b 460 451 445 464 434 462 b 434 461 439 456 436 452 b 434 448 423 447 403 432 b 404 433 419 447 430 453 b 433 455 432 458 426 463 b 412 475 402 478 390 467 b 378 457 332 394 317 344 b 317 344 310 368 316 392 b 323 416 333 427 336 429 b 339 432 334 440 324 447 b 315 455 307 459 293 423 b 290 413 290 415 285 405 b 279 395 240 330 235 335 b 224 342 277 441 283 453 b 295 478 296 481 294 489 b 291 498 280 514 274 511 b 269 508 275 508 268 491 b 254 459 242 434 232 416 b 226 408 219 396 209 385 b 191 365 178 352 177 354 b 175 355 176 359 183 374 b 190 388 201 409 210 422 b 219 434 220 436 207 445 b 193 453 192 447 181 429 b 171 411 156 387 150 368 z m 204 471 b 198 460 202 457 208 453 b 214 449 219 447 222 453 b 226 458 233 467 239 478 b 245 488 241 493 233 502 b 225 511 215 515 213 506 b 211 498 209 482 204 471 z m 251 256 b 263 272 278 286 287 291 b 300 299 311 294 298 272 b 287 253 281 248 271 241 b 267 247 261 253 251 256 z m 255 27 b 250 -2 262 3 280 14 b 298 24 324 35 352 42 b 411 55 474 63 534 68 b 601 74 647 76 665 74 b 683 73 688 71 682 85 b 679 95 671 95 597 93 b 542 92 348 84 296 69 b 275 63 260 56 255 27 z m 275 194 b 272 191 273 182 279 173 b 285 165 294 158 303 167 l 337 202 b 322 184 309 167 316 145 b 318 136 330 112 340 114 b 354 115 367 137 382 162 b 386 168 390 175 393 181 b 386 164 371 139 374 133 b 378 126 383 121 388 117 b 393 112 397 110 407 120 b 415 129 424 144 433 159 b 433 146 444 140 452 134 b 467 125 488 160 494 170 b 501 181 510 193 517 204 b 510 192 495 166 497 159 b 503 141 517 126 526 137 l 544 164 b 544 151 549 138 558 129 b 570 116 582 115 593 126 b 597 131 611 151 622 172 l 634 195 b 627 176 621 160 624 157 b 633 148 639 148 647 156 b 655 163 669 178 687 205 l 694 215 b 689 206 675 182 675 177 b 677 164 687 155 698 148 b 706 143 717 140 725 148 b 733 155 745 176 750 184 b 756 195 753 198 741 199 b 802 206 850 285 824 341 b 818 352 808 356 794 351 b 769 342 762 319 776 324 b 803 334 821 259 763 223 b 763 223 780 255 766 272 b 747 294 731 285 717 263 b 712 265 709 266 694 240 b 689 232 682 222 674 213 b 656 193 643 180 641 182 b 640 183 641 187 648 201 b 655 216 666 237 674 250 b 683 262 685 264 671 272 b 658 281 656 275 646 257 b 640 248 586 147 578 153 b 568 161 621 259 626 271 b 638 297 640 299 637 308 b 635 316 622 334 616 328 b 614 327 617 324 611 310 b 603 290 595 273 588 259 b 584 267 575 272 570 274 b 562 276 552 277 536 258 b 529 249 521 238 514 226 b 509 219 505 211 503 208 b 492 190 475 170 467 160 b 449 147 488 217 489 219 b 494 229 497 236 497 240 b 496 246 493 249 489 254 b 478 264 474 261 474 255 b 473 248 462 229 430 178 b 416 157 405 145 403 145 b 399 144 400 154 407 169 b 423 205 435 218 438 226 b 441 234 437 241 427 251 b 418 261 415 261 411 247 b 409 235 394 213 383 192 l 377 183 b 362 161 349 146 346 155 b 344 162 363 200 372 217 l 383 238 b 385 242 389 249 373 247 b 403 255 471 287 496 287 b 522 287 529 279 532 277 b 535 275 542 280 541 294 b 540 308 528 321 507 320 b 487 318 428 292 406 284 l 406 286 b 407 292 402 302 399 307 b 393 316 385 321 385 306 b 385 297 382 288 374 275 l 372 272 b 360 269 348 269 341 279 b 338 284 332 273 334 262 b 335 249 341 240 353 240 b 353 241 347 229 318 210 b 306 202 294 195 285 193 b 279 192 277 196 275 194 z m 427 404 b 422 408 427 418 433 428 b 440 438 447 445 452 442 b 457 440 452 430 446 420 b 439 410 431 401 427 404 z m 524 169 b 521 172 527 190 544 219 b 561 247 575 259 579 255 b 583 251 573 231 558 209 b 543 186 527 167 524 169 z m 587 382 b 584 384 590 403 607 431 b 623 460 638 472 642 468 b 645 464 636 444 621 421 b 606 399 590 380 587 382 z m 668 299 b 663 288 666 285 673 281 b 679 277 683 275 687 281 b 691 286 697 295 704 306 b 710 316 706 321 697 330 b 689 339 680 343 678 334 b 676 326 673 310 668 299 z m 699 185 b 699 197 712 221 712 221 b 718 207 727 202 727 202 b 727 202 718 186 712 180 b 706 173 699 173 699 185 z m 709 392 b 706 394 712 413 729 441 b 745 469 760 481 764 477 b 767 474 758 453 743 431 b 728 408 712 389 709 392 z m 727 233 b 729 246 742 269 748 266 b 754 264 748 244 736 220 b 736 220 726 221 727 233 z"},"{":{"x_min":0,"x_max":334,"ha":334,"o":"m 32 270 b 112 265 125 186 85 50 b 51 -67 17 -186 114 -186 b 141 -186 151 -146 125 -146 b 46 -146 71 -54 101 47 b 123 124 140 243 78 282 b 159 319 205 432 224 509 b 248 610 293 702 372 702 b 398 702 410 742 383 742 b 286 742 236 623 208 506 b 174 370 121 299 39 294 b 34 294 30 291 27 286 l 26 282 b 23 274 26 270 32 270 z"},"9":{"x_min":0,"x_max":368,"ha":368,"o":"m 35 212 b 25 206 11 196 6 170 b -8 92 27 33 87 30 b 199 25 305 163 358 332 b 411 501 372 641 279 640 b 182 639 107 526 86 456 b 50 337 95 267 168 262 b 214 258 272 280 319 354 l 313 335 b 261 172 156 32 72 41 b 25 46 21 113 35 212 z m 115 456 b 134 521 196 628 276 630 b 333 632 358 524 326 384 b 277 294 219 266 169 268 b 100 271 79 335 115 456 z"}," ":{"x_min":0,"x_max":200,"ha":200,"o":""},"I":{"x_min":0,"x_max":687,"ha":687,"o":"m 702 389 b 785 525 859 648 931 685 b 952 681 972 675 991 669 b 1013 663 1018 697 996 705 b 973 713 949 710 924 699 b 810 727 656 724 597 533 b 594 522 608 523 613 530 b 671 700 794 712 908 690 b 829 644 743 520 662 389 b 501 127 293 -175 95 -77 b -1 -29 -23 164 77 327 b 171 480 334 595 450 530 b 554 470 473 222 423 145 b 349 30 259 -35 204 14 b 130 79 220 309 333 347 l 329 358 b 208 317 117 76 198 6 b 259 -47 370 13 442 131 b 490 211 587 470 459 544 b 330 619 138 507 44 350 b -58 180 -31 -33 91 -92 b 334 -209 541 126 702 389 z m 948 692 b 963 697 979 698 994 694 b 1006 691 1001 674 987 679 b 975 684 962 688 948 692 z"},"H":{"x_min":0,"x_max":1005,"ha":1005,"o":"m 1210 15 b 1217 -53 1146 -108 1075 -98 b 908 -75 885 156 955 365 b 1023 359 1072 367 1091 408 l 1081 412 b 1064 375 1020 368 958 373 b 1006 512 1096 640 1210 686 b 1214 691 1205 700 1200 698 b 1077 650 978 520 925 377 b 868 384 799 398 726 407 b 809 541 882 655 956 672 b 968 669 980 666 991 662 b 1007 657 1014 676 996 683 b 982 689 967 690 951 687 b 838 726 661 717 597 511 b 594 500 608 501 613 508 b 674 686 807 703 926 679 b 851 646 769 535 689 410 b 635 415 578 416 522 409 b 517 457 499 499 459 522 b 330 597 138 485 44 328 b -58 158 -31 -55 91 -114 b 334 -231 541 104 702 367 l 720 396 b 793 389 863 376 922 368 b 846 156 872 -80 1073 -108 b 1151 -119 1237 -59 1229 17 b 1227 34 1207 31 1210 15 z m 77 305 b 171 458 334 573 450 508 b 483 489 497 451 500 405 b 423 392 347 362 279 303 b 180 218 117 54 198 -16 b 259 -69 370 -9 442 109 b 474 162 526 292 522 396 b 576 403 630 403 682 399 l 662 367 b 501 105 293 -197 95 -99 b -1 -51 -23 142 77 305 z m 204 -8 b 130 57 193 212 283 291 b 350 349 424 379 500 393 b 502 296 456 173 423 123 b 349 8 259 -57 204 -8 z m 983 674 b 987 674 990 673 994 672 b 1002 670 995 668 987 672 z"},"4":{"x_min":0,"x_max":929,"ha":929,"o":"m 65 275 b 114 288 137 321 135 345 b 134 369 94 371 81 383 b 68 395 62 406 76 435 b 90 464 128 496 143 505 b 158 514 170 508 155 482 b 140 457 124 436 107 427 b 100 423 109 410 117 403 b 125 395 129 392 142 403 b 155 414 185 459 190 482 b 194 505 188 514 177 526 b 145 559 20 484 26 405 b 30 363 83 354 95 348 b 114 339 89 315 60 317 b 46 318 31 328 20 344 b 17 347 11 353 5 338 b -1 323 15 262 65 275 z m 74 245 b 74 239 80 208 105 209 b 121 209 156 220 191 227 b 189 220 189 213 189 206 b 192 170 233 163 243 157 b 263 148 240 129 213 135 b 204 137 195 146 188 153 b 185 156 180 161 175 148 b 170 136 183 84 226 95 b 260 104 278 134 277 155 b 276 175 250 177 239 187 b 229 197 224 205 232 225 b 222 229 207 229 191 227 b 222 233 253 236 266 225 b 268 222 271 219 273 217 b 280 211 283 208 294 218 b 305 227 323 252 327 271 b 331 291 326 299 317 309 b 296 330 236 299 206 257 b 161 254 94 249 84 258 b 79 263 73 258 74 245 z m 150 368 b 143 349 148 341 160 329 b 168 320 175 320 183 328 b 191 335 203 349 220 373 b 212 359 200 340 202 335 b 204 326 208 317 215 310 b 226 298 232 295 242 307 b 246 312 262 332 274 353 b 285 373 294 390 299 403 b 295 391 288 369 289 364 b 292 351 296 341 300 336 b 309 325 319 318 331 316 b 343 314 335 321 342 339 b 348 355 367 392 392 421 b 381 400 380 376 384 363 b 389 351 421 330 436 327 b 442 326 449 329 456 335 b 473 353 490 389 498 406 b 501 411 504 418 506 425 b 503 425 499 426 496 428 b 510 426 530 444 530 444 b 530 444 519 423 506 394 b 495 371 495 364 511 348 b 515 344 519 341 524 341 l 526 341 b 535 343 551 367 561 386 l 573 407 b 567 394 559 374 561 369 b 567 352 580 340 588 350 b 593 356 600 365 607 377 b 607 364 612 351 621 341 b 633 329 645 327 655 339 b 659 344 673 363 685 385 b 688 390 691 395 693 401 b 689 389 684 372 686 369 b 693 357 704 351 710 360 b 716 367 727 382 737 398 b 738 389 743 378 748 371 b 762 352 780 377 790 388 b 804 405 817 429 825 447 b 821 436 809 411 811 403 b 814 391 818 381 822 376 b 831 366 841 359 853 357 b 865 355 857 361 864 379 b 871 397 892 439 920 468 b 949 497 962 491 948 504 b 934 516 924 518 912 508 b 900 497 854 434 839 384 b 839 384 832 408 838 432 b 845 456 855 467 858 470 b 860 472 855 480 846 488 b 837 496 829 499 815 464 l 812 457 l 806 446 b 794 424 777 405 770 400 b 764 396 765 403 769 412 b 772 420 784 447 791 454 b 797 462 789 469 785 473 b 780 477 778 474 778 474 l 776 470 l 776 471 b 776 484 762 494 755 496 b 747 498 734 499 718 480 b 707 467 695 448 686 429 l 677 413 b 663 391 645 363 641 366 b 631 374 683 472 689 484 b 701 509 703 512 700 521 b 698 529 686 545 681 542 b 676 539 681 539 674 523 b 665 503 658 486 651 472 b 647 480 638 485 633 487 b 625 489 615 490 599 471 b 591 462 582 449 575 435 b 571 429 535 370 530 375 b 528 376 529 379 537 398 b 545 417 554 435 563 449 b 571 463 566 466 560 470 b 553 474 552 477 543 471 b 533 465 512 458 500 458 b 489 459 487 465 484 463 b 481 461 481 460 481 454 b 481 449 482 434 492 429 b 481 412 465 378 446 361 b 433 348 417 352 414 363 b 411 373 411 385 417 401 b 421 390 436 383 443 385 b 450 386 462 401 468 418 b 473 436 469 441 464 446 b 460 451 445 464 434 462 b 434 461 439 456 436 452 b 434 448 423 447 403 432 b 404 433 419 447 430 453 b 433 455 432 458 426 463 b 412 475 402 478 390 467 b 378 457 332 394 317 344 b 317 344 310 368 316 392 b 323 416 333 427 336 429 b 339 432 334 440 324 447 b 315 455 307 459 293 423 b 290 413 290 415 285 405 b 279 395 240 330 235 335 b 224 342 277 441 283 453 b 295 478 296 481 294 489 b 291 498 280 514 274 511 b 269 508 275 508 268 491 b 254 459 242 434 232 416 b 226 408 219 396 209 385 b 191 365 178 352 177 354 b 175 355 176 359 183 374 b 190 388 201 409 210 422 b 219 434 220 436 207 445 b 193 453 192 447 181 429 b 171 411 156 387 150 368 z m 204 471 b 198 460 202 457 208 453 b 214 449 219 447 222 453 b 226 458 233 467 239 478 b 245 488 241 493 233 502 b 225 511 215 515 213 506 b 211 498 209 482 204 471 z m 251 256 b 263 272 278 286 287 291 b 300 299 311 294 298 272 b 287 253 281 248 271 241 b 267 247 261 253 251 256 z m 255 27 b 250 -2 262 3 280 14 b 298 24 324 35 352 42 b 411 55 474 63 534 68 b 601 74 647 76 665 74 b 683 73 688 71 682 85 b 679 95 671 95 597 93 b 542 92 348 84 296 69 b 275 63 260 56 255 27 z m 275 194 b 272 191 273 182 279 173 b 285 165 294 158 303 167 l 337 202 b 322 184 309 167 316 145 b 318 136 330 112 340 114 b 354 115 367 137 382 162 b 386 168 390 175 393 181 b 386 164 371 139 374 133 b 378 126 383 121 388 117 b 393 112 397 110 407 120 b 415 129 424 144 433 159 b 433 146 444 140 452 134 b 467 125 488 160 494 170 b 501 181 510 193 517 204 b 510 192 495 166 497 159 b 503 141 517 126 526 137 l 544 164 b 544 151 549 138 558 129 b 570 116 582 115 593 126 b 597 131 611 151 622 172 l 634 195 b 627 176 621 160 624 157 b 633 148 639 148 647 156 b 655 163 669 178 687 205 l 694 215 b 689 206 675 182 675 177 b 677 164 687 155 698 148 b 706 143 717 140 725 148 b 733 155 745 176 750 184 b 756 195 753 198 741 199 b 802 206 850 285 824 341 b 818 352 808 356 794 351 b 769 342 762 319 776 324 b 803 334 821 259 763 223 b 763 223 780 255 766 272 b 747 294 731 285 717 263 b 712 265 709 266 694 240 b 689 232 682 222 674 213 b 656 193 643 180 641 182 b 640 183 641 187 648 201 b 655 216 666 237 674 250 b 683 262 685 264 671 272 b 658 281 656 275 646 257 b 640 248 586 147 578 153 b 568 161 621 259 626 271 b 638 297 640 299 637 308 b 635 316 622 334 616 328 b 614 327 617 324 611 310 b 603 290 595 273 588 259 b 584 267 575 272 570 274 b 562 276 552 277 536 258 b 529 249 521 238 514 226 b 509 219 505 211 503 208 b 492 190 475 170 467 160 b 449 147 488 217 489 219 b 494 229 497 236 497 240 b 496 246 493 249 489 254 b 478 264 474 261 474 255 b 473 248 462 229 430 178 b 416 157 405 145 403 145 b 399 144 400 154 407 169 b 423 205 435 218 438 226 b 441 234 437 241 427 251 b 418 261 415 261 411 247 b 409 235 394 213 383 192 l 377 183 b 362 161 349 146 346 155 b 344 162 363 200 372 217 l 383 238 b 385 242 389 249 373 247 b 403 255 471 287 496 287 b 522 287 529 279 532 277 b 535 275 542 280 541 294 b 540 308 528 321 507 320 b 487 318 428 292 406 284 l 406 286 b 407 292 402 302 399 307 b 393 316 385 321 385 306 b 385 297 382 288 374 275 l 372 272 b 360 269 348 269 341 279 b 338 284 332 273 334 262 b 335 249 341 240 353 240 b 353 241 347 229 318 210 b 306 202 294 195 285 193 b 279 192 277 196 275 194 z m 427 404 b 422 408 427 418 433 428 b 440 438 447 445 452 442 b 457 440 452 430 446 420 b 439 410 431 401 427 404 z m 524 169 b 521 172 527 190 544 219 b 561 247 575 259 579 255 b 583 251 573 231 558 209 b 543 186 527 167 524 169 z m 587 382 b 584 384 590 403 607 431 b 623 460 638 472 642 468 b 645 464 636 444 621 421 b 606 399 590 380 587 382 z m 668 299 b 663 288 666 285 673 281 b 679 277 683 275 687 281 b 691 286 697 295 704 306 b 710 316 706 321 697 330 b 689 339 680 343 678 334 b 676 326 673 310 668 299 z m 699 185 b 699 197 712 221 712 221 b 718 207 727 202 727 202 b 727 202 718 186 712 180 b 706 173 699 173 699 185 z m 709 392 b 706 394 712 413 729 441 b 745 469 760 481 764 477 b 767 474 758 453 743 431 b 728 408 712 389 709 392 z m 727 233 b 729 246 742 269 748 266 b 754 264 748 244 736 220 b 736 220 726 221 727 233 z"},"D":{"x_min":0,"x_max":981,"ha":981,"o":"m 231 654 b 414 793 647 774 792 661 b 694 609 596 488 515 363 b 404 193 287 15 161 -49 b 142 -42 123 -33 104 -24 b 26 14 -17 1 -26 -25 b -36 -53 -9 -73 13 -80 b 76 -100 133 -93 186 -69 b 514 -177 829 -6 923 216 b 1001 400 943 560 823 661 b 856 677 890 684 923 676 l 925 686 b 888 694 849 688 811 671 b 653 795 398 821 203 676 b 14 536 -40 276 104 182 b 204 117 342 192 411 294 b 482 396 502 537 448 585 b 354 668 147 511 159 279 l 169 281 b 159 509 364 632 429 586 b 487 545 461 409 391 309 b 323 211 190 136 109 193 b -6 274 50 515 231 654 z m -17 -29 b -9 -9 29 0 100 -34 b 116 -42 132 -49 148 -55 b 104 -74 59 -79 13 -65 b -7 -59 -23 -43 -17 -29 z m 200 -62 b 332 7 440 186 547 351 b 629 476 717 598 805 651 b 919 555 973 398 892 216 b 806 22 507 -155 200 -62 z"},"0":{"x_min":0,"x_max":929,"ha":929,"o":"m 65 275 b 114 288 137 321 135 345 b 134 369 94 371 81 383 b 68 395 62 406 76 435 b 90 464 128 496 143 505 b 158 514 170 508 155 482 b 140 457 124 436 107 427 b 100 423 109 410 117 403 b 125 395 129 392 142 403 b 155 414 185 459 190 482 b 194 505 188 514 177 526 b 145 559 20 484 26 405 b 30 363 83 354 95 348 b 114 339 89 315 60 317 b 46 318 31 328 20 344 b 17 347 11 353 5 338 b -1 323 15 262 65 275 z m 74 245 b 74 239 80 208 105 209 b 121 209 156 220 191 227 b 189 220 189 213 189 206 b 192 170 233 163 243 157 b 263 148 240 129 213 135 b 204 137 195 146 188 153 b 185 156 180 161 175 148 b 170 136 183 84 226 95 b 260 104 278 134 277 155 b 276 175 250 177 239 187 b 229 197 224 205 232 225 b 222 229 207 229 191 227 b 222 233 253 236 266 225 b 268 222 271 219 273 217 b 280 211 283 208 294 218 b 305 227 323 252 327 271 b 331 291 326 299 317 309 b 296 330 236 299 206 257 b 161 254 94 249 84 258 b 79 263 73 258 74 245 z m 150 368 b 143 349 148 341 160 329 b 168 320 175 320 183 328 b 191 335 203 349 220 373 b 212 359 200 340 202 335 b 204 326 208 317 215 310 b 226 298 232 295 242 307 b 246 312 262 332 274 353 b 285 373 294 390 299 403 b 295 391 288 369 289 364 b 292 351 296 341 300 336 b 309 325 319 318 331 316 b 343 314 335 321 342 339 b 348 355 367 392 392 421 b 381 400 380 376 384 363 b 389 351 421 330 436 327 b 442 326 449 329 456 335 b 473 353 490 389 498 406 b 501 411 504 418 506 425 b 503 425 499 426 496 428 b 510 426 530 444 530 444 b 530 444 519 423 506 394 b 495 371 495 364 511 348 b 515 344 519 341 524 341 l 526 341 b 535 343 551 367 561 386 l 573 407 b 567 394 559 374 561 369 b 567 352 580 340 588 350 b 593 356 600 365 607 377 b 607 364 612 351 621 341 b 633 329 645 327 655 339 b 659 344 673 363 685 385 b 688 390 691 395 693 401 b 689 389 684 372 686 369 b 693 357 704 351 710 360 b 716 367 727 382 737 398 b 738 389 743 378 748 371 b 762 352 780 377 790 388 b 804 405 817 429 825 447 b 821 436 809 411 811 403 b 814 391 818 381 822 376 b 831 366 841 359 853 357 b 865 355 857 361 864 379 b 871 397 892 439 920 468 b 949 497 962 491 948 504 b 934 516 924 518 912 508 b 900 497 854 434 839 384 b 839 384 832 408 838 432 b 845 456 855 467 858 470 b 860 472 855 480 846 488 b 837 496 829 499 815 464 l 812 457 l 806 446 b 794 424 777 405 770 400 b 764 396 765 403 769 412 b 772 420 784 447 791 454 b 797 462 789 469 785 473 b 780 477 778 474 778 474 l 776 470 l 776 471 b 776 484 762 494 755 496 b 747 498 734 499 718 480 b 707 467 695 448 686 429 l 677 413 b 663 391 645 363 641 366 b 631 374 683 472 689 484 b 701 509 703 512 700 521 b 698 529 686 545 681 542 b 676 539 681 539 674 523 b 665 503 658 486 651 472 b 647 480 638 485 633 487 b 625 489 615 490 599 471 b 591 462 582 449 575 435 b 571 429 535 370 530 375 b 528 376 529 379 537 398 b 545 417 554 435 563 449 b 571 463 566 466 560 470 b 553 474 552 477 543 471 b 533 465 512 458 500 458 b 489 459 487 465 484 463 b 481 461 481 460 481 454 b 481 449 482 434 492 429 b 481 412 465 378 446 361 b 433 348 417 352 414 363 b 411 373 411 385 417 401 b 421 390 436 383 443 385 b 450 386 462 401 468 418 b 473 436 469 441 464 446 b 460 451 445 464 434 462 b 434 461 439 456 436 452 b 434 448 423 447 403 432 b 404 433 419 447 430 453 b 433 455 432 458 426 463 b 412 475 402 478 390 467 b 378 457 332 394 317 344 b 317 344 310 368 316 392 b 323 416 333 427 336 429 b 339 432 334 440 324 447 b 315 455 307 459 293 423 b 290 413 290 415 285 405 b 279 395 240 330 235 335 b 224 342 277 441 283 453 b 295 478 296 481 294 489 b 291 498 280 514 274 511 b 269 508 275 508 268 491 b 254 459 242 434 232 416 b 226 408 219 396 209 385 b 191 365 178 352 177 354 b 175 355 176 359 183 374 b 190 388 201 409 210 422 b 219 434 220 436 207 445 b 193 453 192 447 181 429 b 171 411 156 387 150 368 z m 204 471 b 198 460 202 457 208 453 b 214 449 219 447 222 453 b 226 458 233 467 239 478 b 245 488 241 493 233 502 b 225 511 215 515 213 506 b 211 498 209 482 204 471 z m 251 256 b 263 272 278 286 287 291 b 300 299 311 294 298 272 b 287 253 281 248 271 241 b 267 247 261 253 251 256 z m 255 27 b 250 -2 262 3 280 14 b 298 24 324 35 352 42 b 411 55 474 63 534 68 b 601 74 647 76 665 74 b 683 73 688 71 682 85 b 679 95 671 95 597 93 b 542 92 348 84 296 69 b 275 63 260 56 255 27 z m 275 194 b 272 191 273 182 279 173 b 285 165 294 158 303 167 l 337 202 b 322 184 309 167 316 145 b 318 136 330 112 340 114 b 354 115 367 137 382 162 b 386 168 390 175 393 181 b 386 164 371 139 374 133 b 378 126 383 121 388 117 b 393 112 397 110 407 120 b 415 129 424 144 433 159 b 433 146 444 140 452 134 b 467 125 488 160 494 170 b 501 181 510 193 517 204 b 510 192 495 166 497 159 b 503 141 517 126 526 137 l 544 164 b 544 151 549 138 558 129 b 570 116 582 115 593 126 b 597 131 611 151 622 172 l 634 195 b 627 176 621 160 624 157 b 633 148 639 148 647 156 b 655 163 669 178 687 205 l 694 215 b 689 206 675 182 675 177 b 677 164 687 155 698 148 b 706 143 717 140 725 148 b 733 155 745 176 750 184 b 756 195 753 198 741 199 b 802 206 850 285 824 341 b 818 352 808 356 794 351 b 769 342 762 319 776 324 b 803 334 821 259 763 223 b 763 223 780 255 766 272 b 747 294 731 285 717 263 b 712 265 709 266 694 240 b 689 232 682 222 674 213 b 656 193 643 180 641 182 b 640 183 641 187 648 201 b 655 216 666 237 674 250 b 683 262 685 264 671 272 b 658 281 656 275 646 257 b 640 248 586 147 578 153 b 568 161 621 259 626 271 b 638 297 640 299 637 308 b 635 316 622 334 616 328 b 614 327 617 324 611 310 b 603 290 595 273 588 259 b 584 267 575 272 570 274 b 562 276 552 277 536 258 b 529 249 521 238 514 226 b 509 219 505 211 503 208 b 492 190 475 170 467 160 b 449 147 488 217 489 219 b 494 229 497 236 497 240 b 496 246 493 249 489 254 b 478 264 474 261 474 255 b 473 248 462 229 430 178 b 416 157 405 145 403 145 b 399 144 400 154 407 169 b 423 205 435 218 438 226 b 441 234 437 241 427 251 b 418 261 415 261 411 247 b 409 235 394 213 383 192 l 377 183 b 362 161 349 146 346 155 b 344 162 363 200 372 217 l 383 238 b 385 242 389 249 373 247 b 403 255 471 287 496 287 b 522 287 529 279 532 277 b 535 275 542 280 541 294 b 540 308 528 321 507 320 b 487 318 428 292 406 284 l 406 286 b 407 292 402 302 399 307 b 393 316 385 321 385 306 b 385 297 382 288 374 275 l 372 272 b 360 269 348 269 341 279 b 338 284 332 273 334 262 b 335 249 341 240 353 240 b 353 241 347 229 318 210 b 306 202 294 195 285 193 b 279 192 277 196 275 194 z m 427 404 b 422 408 427 418 433 428 b 440 438 447 445 452 442 b 457 440 452 430 446 420 b 439 410 431 401 427 404 z m 524 169 b 521 172 527 190 544 219 b 561 247 575 259 579 255 b 583 251 573 231 558 209 b 543 186 527 167 524 169 z m 587 382 b 584 384 590 403 607 431 b 623 460 638 472 642 468 b 645 464 636 444 621 421 b 606 399 590 380 587 382 z m 668 299 b 663 288 666 285 673 281 b 679 277 683 275 687 281 b 691 286 697 295 704 306 b 710 316 706 321 697 330 b 689 339 680 343 678 334 b 676 326 673 310 668 299 z m 699 185 b 699 197 712 221 712 221 b 718 207 727 202 727 202 b 727 202 718 186 712 180 b 706 173 699 173 699 185 z m 709 392 b 706 394 712 413 729 441 b 745 469 760 481 764 477 b 767 474 758 453 743 431 b 728 408 712 389 709 392 z m 727 233 b 729 246 742 269 748 266 b 754 264 748 244 736 220 b 736 220 726 221 727 233 z"},"F":{"x_min":0,"x_max":755,"ha":755,"o":"m 697 234 b 704 255 714 275 725 292 b 733 296 740 301 746 307 b 762 324 784 350 768 356 b 760 360 733 333 709 303 b 697 298 682 297 665 299 b 677 318 688 336 699 354 l 728 402 b 782 490 832 569 881 616 b 919 616 955 622 988 636 b 1010 645 1013 665 993 672 b 954 686 911 669 867 631 b 805 636 737 657 668 677 b 537 717 401 755 291 689 b 234 657 160 576 151 444 b 108 408 70 364 41 315 b -61 144 -34 -70 88 -129 b 311 -238 504 38 659 288 b 673 286 685 285 697 286 b 685 266 675 248 673 235 b 673 222 697 223 697 234 z m 74 292 b 96 328 122 362 150 392 b 152 371 154 349 159 325 l 169 327 b 164 354 161 378 160 402 b 250 493 361 544 447 496 b 494 469 503 404 495 333 b 474 333 455 330 439 322 l 443 313 b 458 321 475 323 493 323 b 481 239 446 150 420 109 b 346 -7 256 -72 201 -23 b 127 42 217 274 330 312 l 326 323 b 205 281 114 40 195 -32 b 256 -85 367 -24 439 95 b 465 138 504 231 516 321 b 543 317 572 309 601 302 l 623 296 b 468 49 276 -207 92 -115 b -4 -67 -26 128 74 292 z m 161 452 b 172 575 241 649 295 680 b 402 743 534 698 665 659 b 729 640 793 622 853 618 b 799 567 743 488 689 402 l 659 354 b 649 338 639 322 629 306 l 603 312 b 575 320 545 328 517 331 b 526 406 513 477 456 510 b 370 561 256 527 161 452 z m 764 343 l 766 346 b 766 346 765 345 764 343 z m 895 630 b 927 656 959 669 991 661 b 1002 658 998 652 984 646 b 956 634 926 630 895 630 z"},"k":{"x_min":0,"x_max":208,"ha":208,"o":"m -18 113 b -22 124 -7 156 16 199 b 22 173 33 140 54 120 b 71 104 86 106 105 111 b 138 119 214 212 228 232 l 215 232 b 193 204 125 122 93 122 b 67 122 50 167 41 200 b 120 165 200 296 137 324 b 125 330 105 325 82 305 b 136 388 196 472 218 500 l 205 500 b 199 492 184 491 173 491 b 97 380 -39 184 -39 141 b -39 123 -31 114 -28 110 b -23 104 -18 111 -18 113 z m 37 229 b 80 296 118 319 131 312 b 162 295 83 192 40 212 b 37 214 39 220 38 226 z"},"u":{"x_min":0,"x_max":228,"ha":228,"o":"m 248 232 l 235 232 b 207 199 144 114 111 125 b 90 132 155 252 210 311 l 197 311 b 191 303 176 302 165 302 b 148 281 133 260 120 239 b 90 203 35 129 4 139 b -17 146 44 252 99 311 l 86 311 b 80 303 65 302 54 302 b -11 221 -56 141 -1 127 b 25 120 59 148 89 178 b 77 145 80 120 106 113 b 149 102 220 199 248 232 z"},"]":{"x_min":0,"x_max":276,"ha":276,"o":"m 179 666 l 308 666 l 82 -175 l -45 -175 b -50 -175 -56 -179 -57 -185 b -59 -191 -56 -195 -50 -195 l 97 -195 l 333 686 l 184 686 b 179 686 173 682 171 676 b 170 670 173 666 179 666 z"},"U":{"x_min":0,"x_max":891,"ha":891,"o":"m 911 232 l 898 232 b 839 161 608 -128 570 -99 b 502 -47 731 393 863 616 b 874 637 835 642 828 630 b 753 525 286 -152 203 -85 b 149 -41 280 218 361 364 b 431 491 506 632 457 685 b 396 752 246 709 131 578 b 22 454 -15 305 50 253 b 151 172 337 440 299 547 l 289 543 b 316 491 136 200 56 257 b 4 294 33 432 138 554 b 249 684 388 729 432 681 b 482 627 397 527 327 401 b 246 253 114 -36 192 -95 b 285 -166 588 262 753 497 b 625 263 478 -52 564 -107 b 616 -140 850 154 911 232 z"},"o":{"x_min":0,"x_max":182,"ha":182,"o":"m 126 298 b 147 287 135 249 111 213 l 112 215 b 112 229 91 227 88 210 b 86 198 86 188 87 180 b 61 150 30 127 13 135 b -19 150 82 323 126 298 z m 7 123 b 29 114 63 134 92 165 b 97 157 104 153 114 153 b 142 153 173 194 202 232 l 189 232 b 163 198 137 165 114 165 b 107 165 104 169 104 178 b 143 225 168 288 132 309 b 50 357 -60 150 7 123 z"},"N":{"x_min":0,"x_max":1019,"ha":1019,"o":"m 811 36 l 819 30 b 842 64 860 99 875 137 b 1018 395 1338 734 1546 719 b 1552 718 1555 727 1548 729 b 1347 760 1050 450 895 192 b 910 243 919 297 924 353 b 934 471 944 600 1013 679 b 1026 682 1038 682 1050 679 l 1052 689 b 926 714 775 544 657 363 b 496 116 298 -146 100 -53 b 4 -8 -18 175 82 329 b 176 473 339 582 455 521 b 559 464 478 230 428 157 b 354 48 264 -13 209 33 b 135 94 225 312 338 348 l 334 358 b 213 319 122 92 203 25 b 264 -25 375 32 447 144 b 495 219 592 464 464 534 b 335 605 143 499 49 351 b -53 190 -26 -11 96 -67 b 339 -178 528 103 689 351 b 788 501 902 645 997 675 b 930 594 893 471 883 358 b 875 262 873 172 841 92 l 829 67 b 824 57 818 46 811 36 z"},"G":{"x_min":0,"x_max":596,"ha":596,"o":"m 28 -117 b 260 -176 410 79 562 314 b 681 495 716 580 844 551 l 846 561 b 712 590 653 514 545 349 b 461 242 350 132 244 167 b 178 189 139 257 141 347 l 143 347 b 428 260 685 578 587 694 b 485 814 263 713 170 562 b 131 498 109 435 104 378 b -19 463 124 678 214 704 b 230 713 214 740 197 734 b 98 703 -47 451 104 364 b 100 265 148 186 240 157 b 328 130 414 185 486 259 b 346 49 200 -145 28 -102 b -33 -87 -49 -9 33 73 b 79 119 162 151 207 117 b 266 73 143 -49 94 -57 l 94 -67 b 180 -86 283 73 213 125 b 157 167 74 130 24 80 b -65 -9 -39 -100 28 -117 z m 142 359 b 146 417 167 483 208 550 b 301 702 498 778 579 688 b 673 583 414 269 147 357 z"},"q":{"x_min":0,"x_max":229,"ha":229,"o":"m -44 83 b -47 67 -32 57 -5 56 b -76 -70 -108 -166 -38 -186 b 44 -210 107 -18 53 62 b 110 83 201 171 249 232 l 236 232 b 185 171 99 88 47 71 l 45 73 b 102 170 172 272 215 335 l 202 335 b 196 327 181 326 170 326 b 161 313 153 301 145 288 b 142 298 136 304 128 308 b 36 351 -61 148 5 123 b 15 119 26 120 39 127 l 17 92 b -11 105 -40 104 -44 83 z m -36 -176 b -79 -163 -32 -58 36 58 b 36 58 37 58 38 58 l 43 59 b 95 -12 36 -198 -36 -176 z m -34 81 b -32 91 -10 92 12 83 l 1 66 b -22 67 -35 74 -34 81 z m 11 135 b -21 149 73 322 127 297 b 133 294 137 284 134 273 b 109 236 85 200 63 165 b 41 140 23 130 11 135 z"},"d":{"x_min":0,"x_max":223,"ha":223,"o":"m 284 491 b 246 436 191 359 147 290 b 144 299 139 305 131 308 b 39 351 -58 148 8 123 b 26 116 48 126 75 155 b 73 148 73 143 74 139 b 79 121 104 113 122 118 b 164 128 219 203 243 232 l 230 232 b 202 199 142 117 109 129 b 73 142 282 439 329 500 l 316 500 b 310 492 295 491 284 491 z m 14 135 b -18 149 76 322 130 297 b 135 295 139 286 138 276 b 121 250 107 226 96 205 b 60 151 31 128 14 135 z"},"1":{"x_min":0,"x_max":256,"ha":256,"o":"m 155 28 l 305 641 l 276 641 b 205 512 143 468 49 413 l 56 407 b 142 457 203 502 267 609 l 103 28 z"},"5":{"x_min":0,"x_max":434,"ha":434,"o":"m 225 628 l 215 603 l 117 398 b 117 386 145 381 159 398 b 174 416 197 434 233 436 b 317 441 379 374 342 236 b 322 161 224 11 106 25 b 62 30 5 79 27 161 b 46 231 147 258 171 243 b 170 256 159 281 134 281 b 110 281 25 261 5 164 b -13 75 46 23 104 15 b 254 -6 361 145 383 223 b 425 370 325 450 233 447 b 213 446 192 440 172 430 l 244 602 b 338 592 475 511 482 644 l 473 644 b 466 560 322 646 225 628 z"}}}
